<?xml version="1.0" standalone="no"?>
<!DOCTYPE svg PUBLIC "-//W3C//DTD SVG 20010904//EN"
 "http://www.w3.org/TR/2001/REC-SVG-20010904/DTD/svg10.dtd">
<svg version="1.0" xmlns="http://www.w3.org/2000/svg"
 width="300.000000pt" height="300.000000pt" viewBox="0 0 300.000000 300.000000"
 preserveAspectRatio="xMidYMid meet">
<metadata>
Created by potrace 1.10, written by Peter Selinger 2001-2011
</metadata>
<g transform="translate(0.000000,300.000000) scale(0.100000,-0.100000)"
fill="#000000" stroke="none">
<path d="M1760 2543 c-70 -36 -140 -87 -145 -105 -4 -10 -11 -18 -16 -18 -5 0
-9 -5 -9 -11 0 -5 5 -7 10 -4 6 3 10 2 10 -2 0 -5 -15 -15 -34 -21 -19 -7 -37
-20 -40 -29 -6 -14 -4 -14 11 -2 15 12 16 12 10 -4 -4 -10 -7 -20 -7 -23 0 -2
-7 -1 -16 3 -13 5 -15 2 -9 -18 10 -32 23 -47 47 -55 13 -4 17 -11 13 -22 -5
-14 -4 -15 6 -4 18 17 46 15 53 -3 7 -18 -2 -44 -22 -68 -8 -9 -13 -20 -9 -23
10 -10 57 71 63 108 5 27 1 40 -20 65 -22 26 -24 32 -12 43 9 6 29 9 49 6 54
-9 133 20 182 65 49 45 60 48 51 14 -4 -14 -2 -25 3 -25 7 0 19 -25 25 -52 0
-3 5 -10 9 -15 8 -8 12 -9 38 -12 6 0 9 -10 6 -21 -3 -11 -1 -18 4 -14 5 3 9
-4 9 -15 0 -10 -5 -21 -10 -23 -6 -2 -8 -16 -4 -35 4 -19 11 -30 17 -26 6 4 7
1 2 -6 -4 -8 2 -19 16 -29 36 -25 87 -52 100 -52 17 0 5 141 -15 181 -19 39
-19 39 -3 39 11 0 35 -42 41 -73 2 -6 6 -19 9 -27 5 -13 5 -46 -2 -117 -1 -16
-53 -17 -69 -1 -9 9 -15 9 -24 0 -9 -9 -7 -18 9 -39 11 -16 28 -27 37 -27 21
2 20 -15 0 -45 -13 -18 -14 -25 -4 -31 9 -5 10 -20 6 -46 -6 -31 -5 -37 5 -27
7 7 13 28 13 47 1 19 4 32 9 29 7 -4 12 51 8 95 -2 22 18 32 20 10 7 -63 -13
-169 -35 -187 -21 -18 -44 -4 -38 25 2 13 0 24 -6 24 -6 0 -8 9 -5 20 3 13 0
20 -9 20 -8 0 -15 12 -16 32 -5 59 -20 52 -26 -10 -2 -23 0 -45 5 -48 14 -8
11 -24 -6 -24 -8 0 -12 -6 -9 -14 5 -14 -11 -31 -30 -31 -5 0 -11 -7 -13 -15
-4 -13 -3 -13 7 0 8 12 10 6 8 -25 -4 -47 -25 -70 -75 -80 -36 -6 -53 -15
-126 -64 -36 -23 -40 -24 -48 -8 -15 26 -35 20 -59 -18 -21 -33 -94 -100 -230
-210 -34 -27 -71 -58 -81 -67 -10 -10 -21 -18 -23 -18 -3 0 -4 26 -3 58 l2 57
-34 3 c-24 3 -31 0 -25 -9 5 -8 2 -11 -7 -7 -10 4 -15 -1 -16 -15 -3 -31 -27
-50 -54 -42 l-22 7 24 20 c21 18 20 17 -16 -2 -47 -25 -99 -70 -108 -93 -3 -9
-11 -17 -17 -17 -6 0 -8 5 -4 12 4 7 3 8 -5 4 -6 -4 -9 -12 -6 -17 4 -5 2 -9
-4 -9 -15 0 -91 -81 -91 -97 0 -16 -9 -16 -40 2 -29 17 -86 20 -95 5 -5 -8
-11 -8 -19 -1 -14 11 -142 -16 -188 -40 -92 -46 -238 -163 -238 -189 0 -8 18
3 40 25 22 21 43 36 46 32 4 -4 -23 -36 -59 -71 -37 -35 -67 -69 -67 -75 0
-20 15 -12 37 22 12 17 44 43 70 56 105 52 129 65 148 87 11 12 31 25 45 29
14 4 31 12 38 18 7 5 20 11 30 12 34 5 61 17 66 31 7 20 -10 26 -24 9 -7 -8
-28 -17 -49 -21 -20 -4 -48 -15 -63 -25 -25 -18 -27 -18 -44 -2 -17 17 -17 18
9 21 15 2 27 9 27 17 0 18 21 24 43 13 11 -6 17 -5 17 3 0 7 3 10 6 6 4 -3 19
0 35 8 30 16 109 20 109 6 0 -5 -7 -14 -15 -21 -12 -10 -15 -9 -16 6 0 14 -4
10 -14 -11 -10 -23 -26 -35 -66 -49 -29 -11 -49 -21 -43 -23 6 -2 35 7 65 21
34 15 66 22 85 19 23 -4 26 -2 14 7 -12 9 -9 10 13 5 19 -4 26 -2 22 5 -14 22
3 8 24 -21 l23 -31 -24 12 c-18 9 -16 6 7 -13 45 -38 151 -91 169 -84 9 4 16
2 16 -4 0 -5 10 -14 23 -19 19 -9 43 -24 145 -96 28 -19 26 -28 -29 -142 -22
-45 -38 -86 -35 -91 5 -8 -28 -27 -74 -44 -11 -4 -9 -6 5 -7 16 -1 14 -4 -10
-15 -49 -22 -18 -17 36 7 30 12 46 24 39 28 -8 5 -7 9 5 13 9 4 18 1 22 -9 5
-14 -2 -28 -15 -30 -18 -2 -60 -24 -63 -33 -2 -5 -16 -12 -31 -16 -21 -5 -29
-2 -38 14 -9 18 -8 23 12 31 15 5 17 9 7 9 -9 1 -34 -12 -57 -29 -57 -41 -149
-70 -222 -70 -38 0 -60 -4 -60 -11 0 -18 144 -4 212 20 37 13 60 16 64 10 3
-6 2 -14 -2 -19 -13 -11 -150 -61 -209 -77 l-50 -13 65 5 c36 3 116 19 179 35
95 25 122 36 168 72 30 24 66 50 80 58 25 15 77 108 112 200 16 41 18 57 9 78
-23 58 -27 92 -11 92 8 0 13 -6 10 -13 -4 -11 6 -12 48 -6 30 4 59 10 65 14
12 7 30 -34 23 -53 -3 -7 0 -19 7 -27 6 -8 9 -18 6 -24 -3 -5 0 -11 6 -14 7
-2 -8 -14 -34 -25 -54 -25 -62 -27 -53 -10 4 7 0 5 -8 -4 -8 -10 -17 -15 -20
-12 -3 3 -13 -6 -23 -20 -21 -33 -11 -46 13 -19 10 12 42 25 74 32 70 15 102
46 105 101 1 22 -2 40 -7 40 -11 0 -12 47 -1 53 4 2 1 2 -5 1 -7 -2 -13 3 -13
10 0 7 -8 22 -17 33 -15 16 -24 18 -50 11 -30 -8 -46 -28 -23 -28 6 0 10 5 10
10 0 6 7 10 15 10 19 0 19 -11 2 -34 -8 -11 -20 -17 -28 -14 -8 3 -20 -1 -27
-9 -15 -15 -42 -18 -42 -4 0 5 12 19 28 32 l27 21 -25 -7 c-54 -17 -53 -15 10
15 39 19 73 29 87 25 24 -6 83 24 83 43 0 17 -19 15 -27 -4 -3 -8 -11 -13 -19
-10 -7 3 -14 0 -16 -6 -5 -14 -28 -2 -28 14 0 6 11 8 24 6 23 -5 52 24 42 40
-3 5 -1 14 4 22 13 22 33 -1 34 -39 1 -17 4 -31 8 -31 16 0 48 45 42 60 -17
42 -22 70 -13 76 14 8 20 0 29 -38 6 -29 8 -31 15 -13 18 42 86 125 104 125
40 0 211 -103 197 -118 -3 -2 -18 5 -34 17 -17 12 -35 21 -41 21 -6 0 -11 4
-11 8 0 5 -12 14 -27 21 l-28 11 23 -19 c12 -11 22 -23 22 -28 0 -4 15 -15 33
-23 17 -8 31 -19 29 -25 -6 -16 32 -23 43 -8 9 11 11 10 12 -9 1 -13 5 -33 8
-45 8 -33 -11 -28 -24 5 -8 23 -9 20 -4 -18 3 -25 9 -49 14 -54 5 -6 7 0 4 12
-2 12 0 22 6 22 5 0 9 -16 9 -35 0 -25 -4 -35 -16 -35 -10 0 -12 -5 -7 -12 4
-7 7 -42 8 -77 0 -43 4 -66 13 -69 6 -2 10 -7 8 -10 -2 -4 7 -15 20 -25 23
-17 24 -17 24 0 0 10 -9 24 -21 31 -13 8 -18 19 -15 29 11 27 8 216 -4 268 -6
28 -22 62 -36 76 -16 17 -22 29 -15 33 6 4 11 12 11 18 0 6 -3 8 -7 5 -3 -4
-13 -1 -21 6 -13 9 -14 9 -8 0 5 -9 1 -13 -11 -13 -14 1 -12 6 12 25 20 17 33
21 41 14 7 -6 18 -9 26 -8 29 3 44 -2 68 -24 14 -13 56 -41 94 -62 56 -31 72
-36 87 -27 13 9 19 8 22 -1 4 -8 6 -7 6 3 1 9 12 2 31 -20 28 -32 34 -44 32
-61 -1 -4 6 -6 15 -5 9 0 18 -5 21 -13 3 -10 -1 -12 -14 -8 -17 6 -17 6 1 -8
11 -9 28 -26 38 -38 10 -12 15 -16 11 -8 -5 10 -3 12 5 7 7 -5 10 -14 7 -21
-6 -17 29 -49 47 -42 8 3 32 2 53 -3 21 -5 40 -7 43 -5 6 7 -68 36 -84 33 -13
-3 -75 72 -75 91 0 13 -140 161 -153 161 -6 0 -20 8 -31 19 -42 37 -158 91
-198 91 -35 0 -75 -13 -88 -29 -3 -3 -15 -14 -26 -24 -21 -17 -21 -17 -21 9 0
24 -11 38 -38 47 -5 2 -1 22 9 45 25 54 14 64 -26 24 -17 -18 -33 -30 -36 -27
-3 3 10 21 29 41 33 34 33 36 15 49 -25 19 -39 9 -32 -21 5 -19 2 -24 -13 -24
-14 0 -19 5 -15 15 4 9 -1 17 -12 21 -26 10 -54 35 -49 44 3 4 -7 16 -21 25
-15 9 -23 11 -19 4 6 -8 4 -10 -6 -3 -8 5 -23 7 -34 5 -20 -3 -20 -3 0 12 11
9 22 14 25 12 3 -2 6 7 6 20 2 33 -22 39 -59 14 l-32 -21 34 30 c29 27 37 29
63 20 16 -6 55 -36 88 -67 77 -75 108 -101 119 -101 11 0 24 -111 15 -133 -5
-13 -2 -16 10 -11 9 3 16 10 16 14 0 5 12 22 26 39 27 33 26 75 -1 64 -17 -6
-33 26 -18 36 12 8 24 51 13 51 -4 0 -13 -7 -20 -16 -8 -8 -23 -20 -34 -26
-14 -7 -10 1 12 24 l33 35 -33 27 c-18 14 -39 31 -45 37 -7 5 -13 6 -13 1 0
-6 12 -17 26 -26 28 -19 30 -59 3 -64 -24 -4 -55 28 -38 39 10 6 7 11 -11 18
-14 6 -41 25 -60 42 -28 25 -31 30 -12 24 13 -4 22 -2 22 4 0 6 9 11 21 11 11
0 18 -4 15 -8 -2 -4 5 -9 17 -9 21 -2 21 -1 -3 18 -14 10 -35 22 -47 25 -13 3
-21 10 -18 14 12 20 67 -16 125 -81 34 -38 67 -69 75 -69 18 0 28 -30 14 -46
-7 -9 -8 -22 -1 -41 l9 -28 17 40 c21 48 28 105 12 105 -6 0 -3 5 7 11 9 5 17
19 17 30 0 17 -2 18 -13 7 -7 -7 -20 -25 -30 -40 -10 -16 -23 -28 -29 -28 -9
0 -9 3 0 12 17 17 15 31 -3 25 -8 -4 -17 -2 -20 2 -3 5 2 11 10 15 8 3 17 1
20 -5 13 -20 25 3 13 24 -7 12 -13 30 -15 40 -2 10 -14 28 -28 41 -24 22 -33
46 -17 46 9 0 55 -69 62 -93 4 -16 13 -10 48 32 44 52 62 94 62 142 0 15 10
48 21 74 20 45 21 58 14 194 -7 139 -8 148 -37 194 -17 26 -33 47 -37 47 -4 0
-19 27 -33 59 -30 68 -102 130 -153 131 -16 1 -57 3 -90 6 -46 4 -68 1 -95
-13z m100 -2 c0 -5 10 -7 23 -5 18 3 17 2 -6 -9 -33 -16 -26 -27 11 -21 37 7
22 -5 -40 -31 -29 -12 -86 -36 -127 -54 -41 -17 -75 -31 -76 -31 -1 0 -1 10 0
23 1 12 3 28 4 35 0 6 5 12 11 12 5 0 7 -8 4 -17 -5 -17 -5 -17 9 -1 8 10 16
15 19 12 3 -2 8 2 11 10 4 11 1 13 -11 10 -14 -5 -14 -4 -3 4 8 6 21 8 29 4
10 -3 13 -1 8 6 -4 7 -2 12 3 12 6 0 11 -6 11 -14 0 -21 38 -8 52 18 7 11 11
25 10 30 -2 5 4 6 12 3 9 -4 18 -2 21 3 8 13 25 13 25 1z m86 -9 c-2 -4 9 -14
26 -21 46 -21 117 -105 118 -140 0 -8 -13 4 -29 25 -16 21 -45 54 -64 73 -31
29 -39 32 -52 21 -13 -11 -15 -8 -15 19 0 17 5 31 11 31 5 0 8 -4 5 -8z m-50
-64 c4 -7 4 -10 -1 -6 -5 5 -14 -1 -22 -12 -8 -11 -20 -20 -27 -20 -8 0 -19
-6 -25 -13 -13 -16 -118 -43 -128 -34 -3 4 2 7 11 7 10 0 29 9 43 20 14 11 34
20 44 20 10 0 21 5 24 10 3 6 17 10 30 10 12 0 25 7 29 15 7 18 13 19 22 3z
m75 -35 c0 -10 3 -13 5 -6 7 17 45 -23 38 -40 -5 -13 27 -31 48 -28 4 0 5 -6
1 -15 -3 -8 3 -21 13 -30 18 -14 18 -14 -3 -4 -13 6 -23 17 -23 24 0 9 -7 12
-19 9 -13 -3 -25 4 -38 24 -10 15 -23 34 -30 41 -7 7 -13 20 -13 28 0 20 20
17 21 -3z m-340 -126 c9 -12 19 -35 23 -50 l7 -28 -23 20 c-12 12 -25 21 -28
21 -4 0 -6 12 -4 28 2 15 1 19 -2 9 -3 -9 -10 -15 -15 -11 -6 4 -6 11 2 20 15
19 21 17 40 -9z m470 -62 c11 4 19 2 19 -4 0 -6 -3 -10 -7 -8 -10 3 -13 -6
-13 -34 0 -11 4 -18 9 -15 5 3 11 -3 14 -15 5 -20 5 -20 -21 -4 -34 22 -62 53
-62 71 0 8 8 23 18 34 17 21 17 21 20 -5 3 -20 7 -25 23 -20z m-17 -377 c20
-29 20 -48 0 -48 -12 0 -15 -7 -12 -23 4 -20 1 -24 -20 -23 -26 1 -50 40 -32
51 6 4 10 14 10 24 0 17 18 41 31 41 5 0 15 -10 23 -22z m51 -44 c-7 -51 -21
-82 -45 -100 -24 -20 -23 -9 4 45 14 28 26 62 26 76 0 14 5 25 11 25 8 0 9
-15 4 -46z m-165 -93 c0 -5 9 -12 19 -16 13 -4 18 -12 14 -28 -3 -16 -2 -18 5
-9 7 11 10 10 16 -3 3 -9 -1 -23 -9 -31 -13 -14 -16 -13 -22 3 -9 25 -26 34
-36 20 -6 -8 -7 -7 -4 3 2 8 0 23 -5 33 -9 18 -3 37 13 37 5 0 9 -4 9 -9z
m-265 -202 c40 -18 74 -42 91 -64 25 -34 26 -36 9 -49 -19 -14 -12 -40 8 -30
7 3 3 -2 -7 -10 -27 -22 -42 -20 -61 6 -18 26 -3 37 22 16 15 -12 16 -10 10
12 -4 14 -7 28 -7 33 0 12 -21 8 -37 -8 -8 -8 -19 -13 -24 -10 -13 9 -11 26 4
24 21 -2 57 13 51 22 -2 5 -20 8 -38 7 -38 -1 -56 7 -56 27 0 7 -16 23 -35 35
-69 42 -36 38 70 -11z m-152 -54 c9 -8 40 -24 71 -35 40 -16 66 -34 96 -69 22
-27 40 -53 40 -58 0 -18 -49 -63 -67 -63 -17 1 -17 2 1 15 16 12 17 17 6 30
-16 20 -6 19 14 -1 15 -14 17 -14 23 2 5 12 -3 26 -27 46 -19 15 -30 28 -25
28 6 0 3 4 -5 9 -8 6 -18 7 -22 5 -16 -10 -7 -31 20 -44 15 -7 22 -15 15 -17
-16 -6 -23 -5 -22 3 0 3 -8 12 -18 19 -9 7 -18 24 -18 36 0 16 -7 25 -20 27
-16 3 -18 1 -7 -9 6 -7 12 -17 12 -22 0 -5 -5 -5 -12 0 -7 6 -21 9 -31 8 -14
-3 -16 0 -7 10 9 10 6 15 -11 20 -15 5 -18 10 -9 15 8 5 4 13 -14 28 -14 11
-26 23 -26 26 0 12 29 6 43 -9z m-203 -19 c0 -14 -5 -28 -10 -31 -6 -4 -8 -10
-6 -13 2 -4 -4 -19 -15 -32 -17 -23 -19 -24 -20 -5 0 11 -3 14 -6 8 -2 -7 -20
-13 -39 -13 -26 0 -32 -3 -28 -15 4 -10 0 -15 -15 -15 -12 0 -21 3 -21 8 0 13
98 74 109 67 6 -3 11 -2 11 4 0 20 20 61 30 61 5 0 10 -11 10 -24z m-138 -41
c1 -14 -49 -41 -59 -31 -4 4 3 16 16 27 24 20 42 21 43 4z m265 -19 c12 -13
45 -32 74 -41 89 -29 146 -101 112 -142 -14 -17 -14 -17 -9 1 8 23 -2 58 -14
51 -5 -3 -24 10 -42 29 -18 20 -46 38 -61 40 -27 5 -104 62 -106 79 -2 16 27
6 46 -17z m372 15 c17 -11 2 -41 -35 -70 -44 -35 -52 -23 -9 13 34 29 37 35
23 41 -10 4 -15 11 -12 16 7 11 15 11 33 0z m49 -62 l2 -34 -19 23 c-11 13
-17 30 -14 38 9 25 28 9 31 -27z m-494 6 c10 -8 23 -12 27 -9 5 3 6 -2 3 -10
-4 -11 11 -20 65 -36 51 -16 78 -31 96 -52 26 -31 30 -68 8 -75 -7 -3 -9 3 -6
16 7 26 -55 91 -86 91 -26 0 -70 20 -99 45 -13 10 -35 25 -50 31 l-27 12 25 1
c14 0 34 -6 44 -14z m-236 -3 c9 -7 6 -15 -13 -36 -14 -15 -31 -26 -37 -24
-15 5 -58 -75 -58 -108 l0 -25 -30 23 c-46 33 -30 66 65 139 56 42 55 42 73
31z m222 -32 c8 -5 15 -15 15 -21 0 -7 14 -20 32 -30 25 -14 31 -15 26 -3 -4
10 0 12 11 8 9 -3 13 -11 9 -17 -4 -7 0 -8 11 -4 10 4 23 4 29 0 7 -4 15 -8
20 -9 4 -1 10 -2 14 -3 4 0 -2 -8 -13 -16 -18 -14 -18 -14 6 -15 14 0 21 -4
15 -8 -5 -4 -10 -13 -10 -21 0 -8 -6 -16 -12 -18 -7 -3 -13 0 -13 7 0 6 5 8
12 4 7 -5 8 -3 3 6 -6 10 -13 8 -27 -10 -11 -13 -29 -29 -40 -34 -12 -6 -23
-22 -25 -35 -3 -23 -2 -22 32 8 20 17 44 31 53 31 10 0 23 5 29 11 6 6 17 9
25 6 7 -2 -12 -16 -42 -29 -30 -14 -64 -35 -74 -47 -11 -11 -29 -21 -40 -21
-17 0 -18 2 -6 10 8 5 12 10 8 11 -5 1 -12 3 -18 4 -5 1 -18 3 -27 4 -16 1
-16 3 -3 11 9 6 11 10 3 10 -18 0 -4 28 18 35 24 8 24 21 2 29 -10 4 -14 4
-11 0 4 -3 0 -14 -9 -23 -21 -21 -63 -25 -63 -5 0 8 3 13 8 13 21 -4 24 3 6
17 -13 11 -15 17 -6 20 13 6 7 24 -9 24 -6 0 -8 -4 -5 -9 3 -5 -1 -11 -9 -15
-9 -3 -15 0 -15 9 0 9 -6 12 -17 8 -10 -3 -15 -3 -11 2 4 4 18 9 30 10 37 4
38 4 32 20 -9 22 -28 19 -62 -10 -17 -14 -35 -25 -41 -25 -6 0 -20 -14 -30
-30 -16 -27 -20 -29 -31 -15 -10 12 -9 16 4 21 9 3 13 10 10 15 -3 5 3 6 12 2
11 -4 15 -3 10 5 -7 12 27 35 38 25 3 -3 6 0 6 8 1 15 96 89 115 89 5 0 17 -5
25 -10z m770 -3 c0 -18 41 -40 66 -35 10 2 19 -3 19 -10 0 -7 18 -23 40 -36
34 -21 37 -26 21 -32 -19 -7 -86 22 -86 38 0 4 -7 8 -15 8 -8 0 -25 11 -37 25
-11 13 -24 22 -28 20 -4 -3 -15 4 -25 15 -18 20 -17 20 13 20 20 0 32 -5 32
-13z m-875 -7 c6 -10 -54 -52 -91 -64 -34 -11 -53 -38 -55 -84 -3 -41 -11 -52
-24 -32 -3 6 -17 10 -31 10 -22 0 -24 3 -17 28 19 77 101 150 170 151 23 1 45
-3 48 -9z m-302 -118 c31 -19 57 -35 57 -38 0 -10 -19 -2 -69 31 -30 20 -58
34 -63 33 -5 -2 17 -20 49 -40 46 -30 54 -38 39 -44 -13 -5 -27 3 -52 30 -20
21 -41 36 -48 33 -8 -3 -16 2 -19 12 -7 28 41 20 106 -17z m296 -15 c6 -8 7
-18 3 -23 -4 -5 3 0 16 10 29 25 40 14 13 -13 -23 -23 -28 -46 -8 -36 6 4 3
-1 -8 -10 -19 -15 -20 -14 -29 5 -5 11 -15 20 -23 20 -18 0 -16 -17 4 -28 14
-9 14 -11 -6 -22 -12 -6 -29 -9 -37 -6 -16 6 -20 56 -4 56 6 0 10 7 10 16 0
10 6 14 14 11 9 -4 17 2 21 14 7 22 18 24 34 6z m-100 -76 c1 -11 -2 -11 -14
-1 -16 13 -20 42 -8 54 8 7 20 -23 22 -53z m-583 4 c-3 -31 -46 -67 -46 -40 0
9 -4 13 -10 10 -16 -10 2 28 19 42 26 20 40 15 37 -12z m508 9 c12 -32 7 -64
-12 -64 -19 0 -54 35 -45 44 12 12 22 6 26 -16 5 -21 5 -21 5 2 0 41 2 50 11
50 5 0 12 -7 15 -16z m-114 -10 c0 -10 6 -14 15 -10 8 3 15 1 15 -4 0 -16 -23
-11 -50 10 -25 20 -25 20 -2 20 14 0 22 -6 22 -16z m364 -6 c-5 -7 3 -12 43
-24 18 -5 5 -31 -19 -37 -24 -7 -128 14 -128 25 0 4 10 8 23 8 13 0 28 5 33
10 7 7 16 4 29 -10 19 -21 45 -27 45 -11 0 5 -9 12 -19 16 -29 9 -44 31 -21
31 10 0 16 -4 14 -8z m-174 -28 c20 -16 22 -20 8 -20 -10 0 -18 -7 -18 -15 0
-19 -7 -19 -25 -1 -13 13 -10 56 4 56 3 0 17 -9 31 -20z m133 -86 c4 -8 15
-14 23 -14 9 0 12 5 8 11 -4 8 0 8 15 0 26 -15 28 -41 2 -41 -11 0 -23 -5 -26
-10 -4 -6 -11 -8 -16 -5 -13 9 -11 23 4 22 32 -1 48 4 42 13 -5 8 -11 8 -20 0
-10 -8 -24 -3 -60 24 -26 20 -53 36 -61 36 -8 0 -14 6 -14 14 0 11 12 8 48
-11 26 -14 51 -31 55 -39z m36 31 c46 -3 51 -5 51 -15 0 -5 -9 -10 -20 -10
-11 0 -20 4 -20 9 0 6 -12 9 -26 8 -15 -1 -29 4 -32 12 -3 9 0 11 8 6 7 -4 25
-9 39 -10z m236 -64 c7 -67 -7 -65 -23 2 -16 71 -16 82 3 63 8 -8 17 -38 20
-65z m-310 13 c6 -12 17 -30 25 -39 8 -10 -2 -6 -24 9 -21 14 -43 26 -47 26
-5 0 -9 7 -9 16 0 23 42 14 55 -12z m55 -86 l-11 -23 19 24 19 24 11 -39 10
-39 1 40 c1 31 4 36 11 23 13 -21 -15 -99 -63 -178 -32 -54 -67 -77 -67 -46 0
9 6 13 14 10 12 -5 23 8 24 30 0 5 6 13 14 17 9 6 5 8 -11 6 -13 -2 -34 -14
-47 -26 -13 -13 -24 -18 -24 -13 0 17 41 82 52 82 5 0 7 4 4 8 -5 8 26 101 41
125 11 18 14 -3 3 -25z m-130 -307 c0 -11 -45 -29 -87 -35 -40 -5 -44 11 -5
20 15 3 38 10 52 14 34 11 40 12 40 1z"/>
<path d="M1324 1288 c-4 -5 -1 -15 5 -21 8 -8 17 -6 32 10 l21 21 -26 0 c-15
0 -29 -5 -32 -10z"/>
<path d="M1355 1248 c-22 -33 1 -36 30 -4 22 24 22 26 5 26 -10 0 -26 -10 -35
-22z"/>
<path d="M1316 834 c-9 -8 -16 -21 -15 -27 0 -9 2 -8 6 0 2 7 14 11 26 9 12
-1 16 -1 9 1 -10 4 -10 8 -1 19 16 20 -5 18 -25 -2z"/>
<path d="M1323 787 c-27 -14 -39 -47 -14 -40 16 4 59 54 44 52 -4 -1 -18 -6
-30 -12z"/>
<path d="M1801 1258 c-17 -18 -34 -42 -37 -53 -4 -11 -19 -35 -35 -54 -24 -29
-26 -36 -14 -45 12 -9 11 -16 -7 -44 -11 -19 -24 -29 -27 -23 -4 6 -12 6 -21
1 -8 -5 -11 -13 -6 -17 12 -13 56 -10 56 3 0 6 9 22 19 35 l19 24 7 -38 c7
-38 -8 -73 -26 -61 -5 3 -9 -2 -9 -10 0 -10 6 -13 15 -10 10 4 15 0 15 -12 0
-30 -12 -64 -21 -64 -13 0 -11 28 3 32 9 3 9 6 0 12 -16 9 -27 -18 -17 -41 13
-30 13 -41 1 -46 -21 -8 -61 -172 -50 -203 11 -29 25 -44 36 -38 5 3 4 12 -3
20 -19 23 -3 100 37 184 35 72 56 164 47 201 -6 22 22 53 38 43 8 -5 8 -1 0
14 -15 27 -14 30 7 35 16 4 16 5 -1 6 -24 1 -11 21 13 21 11 0 28 9 39 21 11
12 25 19 32 17 8 -3 -4 -20 -30 -46 -24 -23 -41 -47 -39 -54 3 -8 16 0 36 20
18 18 32 29 32 25 1 -4 8 6 16 22 8 17 12 22 9 12 -3 -10 -1 -16 4 -13 5 3 11
17 13 31 4 20 -1 28 -23 39 -16 8 -29 10 -29 5 0 -6 -20 -19 -44 -29 -25 -11
-53 -35 -67 -55 -13 -19 -27 -35 -30 -35 -10 0 -3 60 9 72 7 7 12 21 12 32 0
10 3 16 7 13 3 -4 12 1 19 11 13 16 13 16 14 -2 0 -19 1 -19 20 -1 21 19 23
66 3 72 -6 2 -25 -11 -42 -29z"/>
<path d="M1870 1263 c0 -16 -7 -39 -16 -51 -20 -29 -5 -28 24 2 15 16 19 27
12 31 -6 4 -9 13 -6 21 3 7 1 16 -4 19 -6 4 -10 -7 -10 -22z"/>
<path d="M1613 1068 c-25 -12 -28 -24 -14 -47 8 -12 12 -13 25 -1 9 7 14 15
12 18 -3 2 -1 13 5 23 11 21 4 23 -28 7z"/>
</g>
</svg>
