<?xml version="1.0" standalone="no"?>
<!DOCTYPE svg PUBLIC "-//W3C//DTD SVG 20010904//EN"
 "http://www.w3.org/TR/2001/REC-SVG-20010904/DTD/svg10.dtd">
<svg version="1.0" xmlns="http://www.w3.org/2000/svg"
 width="300.000000pt" height="300.000000pt" viewBox="0 0 300.000000 300.000000"
 preserveAspectRatio="xMidYMid meet">
<metadata>
Created by potrace 1.10, written by Peter Selinger 2001-2011
</metadata>
<g transform="translate(0.000000,300.000000) scale(0.100000,-0.100000)"
fill="#f7f7f7" stroke="none">
<path d="M0 1500 l0 -1500 1500 0 1500 0 0 1500 0 1500 -1500 0 -1500 0 0
-1500z m1941 1050 c48 0 121 -59 150 -120 15 -30 33 -62 42 -70 8 -8 26 -33
40 -55 23 -36 26 -53 32 -181 7 -133 2 -190 -13 -180 -4 2 -8 -6 -9 -17 -7
-76 -26 -155 -43 -177 -11 -14 -34 -43 -50 -64 -27 -34 -30 -36 -30 -16 0 12
11 33 25 46 14 13 25 27 25 33 0 5 4 11 9 13 5 2 12 27 16 57 5 38 4 52 -4 47
-6 -4 -11 -17 -11 -29 0 -24 -29 -91 -53 -121 -14 -19 -15 -18 -38 17 -25 38
-39 47 -39 24 0 -8 -7 -14 -15 -15 -8 -1 -22 -3 -30 -4 -13 -1 -13 -4 -1 -22
8 -12 19 -20 25 -19 6 2 11 -5 11 -15 1 -16 2 -15 15 2 17 23 11 36 -17 36
-24 0 -17 13 10 16 19 3 51 -27 55 -53 2 -10 8 -28 15 -39 10 -18 8 -26 -9
-48 -11 -14 -16 -26 -10 -26 16 0 44 48 35 61 -5 8 -3 9 6 4 7 -4 16 -2 21 6
6 11 9 8 9 -8 0 -12 -8 -27 -17 -32 -10 -6 -13 -11 -7 -11 29 -1 -14 -136 -69
-217 -32 -48 -46 -54 -45 -20 4 58 -3 127 -12 127 -13 0 -39 22 -117 97 -85
82 -108 89 -158 52 -44 -33 -39 -40 6 -8 27 19 30 19 64 3 40 -19 55 -35 25
-27 -11 3 -20 10 -20 15 0 5 -5 6 -11 3 -6 -4 -8 -13 -5 -21 3 -8 2 -13 -2
-12 -15 3 -42 -15 -36 -24 4 -5 11 -5 19 2 9 7 16 6 24 -4 7 -8 18 -13 25 -10
7 3 19 -2 26 -11 11 -13 10 -15 -6 -9 -14 5 -12 1 6 -13 14 -11 33 -22 43 -26
9 -3 17 -11 17 -17 0 -14 -13 -13 -30 3 -10 9 -10 6 1 -12 9 -14 22 -27 30
-29 11 -3 11 -1 -1 7 -12 9 -11 11 7 11 12 0 25 5 28 10 3 6 1 10 -4 10 -13 0
-15 27 -2 34 4 3 17 -1 27 -9 18 -13 18 -15 -15 -49 -19 -20 -32 -38 -29 -41
3 -3 19 10 36 29 27 31 32 33 43 19 11 -13 10 -18 -6 -32 -21 -17 -33 -61 -16
-61 22 0 41 -32 35 -58 l-7 -27 22 28 c55 68 125 74 227 21 38 -20 78 -45 90
-55 11 -11 25 -19 31 -19 13 0 153 -149 153 -162 0 -15 61 -93 73 -94 7 0 21
-2 33 -2 11 -1 29 -9 40 -18 18 -14 18 -15 -6 -8 -13 4 -42 7 -63 7 -34 0 -40
3 -49 28 -5 16 -14 27 -18 24 -5 -3 -12 0 -16 6 -4 8 -3 9 4 5 7 -4 12 -4 12
1 0 4 -13 14 -29 21 -16 7 -37 25 -46 40 l-16 27 21 -24 c11 -13 23 -21 27
-17 4 3 -6 19 -20 34 -15 16 -27 31 -27 35 0 12 -41 49 -48 43 -3 -3 5 -18 19
-33 l24 -27 -31 25 c-17 13 -29 27 -27 32 2 4 -1 7 -6 7 -6 0 -11 -4 -11 -9 0
-6 -9 -8 -20 -6 -29 6 -144 72 -165 95 -24 27 -39 25 -65 -8 -12 -15 -18 -20
-14 -12 4 8 14 23 22 33 17 19 10 22 -21 6 -22 -10 -22 -10 1 10 12 11 19 22
14 25 -12 7 -93 -54 -86 -65 3 -5 10 -7 15 -3 5 3 6 11 2 17 -5 8 -2 8 9 0 8
-7 18 -10 21 -6 4 3 7 1 7 -5 0 -6 -5 -14 -11 -18 -7 -4 -1 -16 15 -33 16 -17
30 -47 36 -81 12 -62 14 -191 5 -243 -6 -30 -3 -38 14 -49 12 -7 21 -21 21
-31 0 -17 -2 -17 -27 3 -15 11 -29 29 -31 38 -11 48 -13 92 -4 108 7 13 6 21
-3 29 -9 6 -15 38 -18 83 -2 40 -6 74 -8 76 -2 2 -16 6 -31 10 -22 5 -33 1
-54 -24 -15 -16 -30 -28 -33 -26 -3 2 -12 -2 -19 -10 -7 -8 -9 -14 -5 -14 14
0 -56 -39 -81 -46 -22 -5 -24 -11 -25 -69 -1 -65 -20 -129 -52 -175 -9 -14
-25 -54 -34 -89 -15 -58 -15 -65 0 -81 10 -11 12 -20 6 -24 -6 -4 -17 7 -26
24 -14 26 -14 37 -4 68 7 20 12 50 10 66 -2 20 1 26 9 21 8 -5 10 -2 6 12 -3
11 1 28 9 39 12 16 14 16 9 1 -11 -30 11 -19 23 12 9 26 8 30 -8 34 -14 4 -19
13 -17 35 1 19 7 28 15 25 9 -4 9 -9 0 -23 -6 -11 -8 -22 -5 -26 12 -12 34 20
36 54 2 30 1 32 -18 22 -16 -9 -20 -8 -20 5 0 8 5 14 12 12 13 -2 43 51 34 61
-4 3 -13 -3 -21 -14 -13 -17 -14 -17 -15 -2 0 9 5 20 10 23 6 3 10 12 10 18
-1 15 -40 -31 -40 -47 0 -6 -8 -12 -17 -13 -10 -1 -34 -7 -54 -14 -29 -11 -36
-18 -37 -41 0 -16 3 -26 8 -23 4 3 7 -13 6 -34 -2 -42 -22 -75 -39 -64 -5 3
-7 1 -3 -5 10 -16 -5 -22 -97 -39 -15 -3 -34 -15 -42 -26 -8 -11 -18 -17 -22
-13 -4 4 -1 11 7 16 8 6 11 10 6 10 -19 0 20 33 81 66 56 32 83 58 51 52 -6
-2 -13 6 -15 17 -3 20 -3 20 6 0 5 -11 10 -15 10 -9 2 20 -31 74 -40 68 -6 -3
-34 -9 -64 -13 -42 -6 -52 -5 -48 6 3 7 -2 13 -10 13 -16 0 -12 -34 11 -90 7
-19 4 -39 -13 -85 -35 -93 -84 -185 -99 -185 -7 0 -19 -6 -25 -14 -7 -8 -36
-33 -66 -56 -45 -35 -72 -46 -172 -71 -65 -16 -145 -32 -178 -34 l-60 -5 50
13 c54 14 181 62 204 76 7 5 11 13 7 19 -4 7 -26 4 -64 -9 -64 -23 -212 -38
-212 -22 0 6 28 11 61 12 75 2 166 31 220 71 22 16 55 32 72 35 46 10 98 36
91 46 -3 5 13 46 35 91 54 109 55 126 11 154 -19 13 -53 36 -75 52 -22 16 -48
32 -57 35 -10 4 -18 11 -18 17 0 13 17 13 25 0 9 -15 25 -12 25 6 0 8 -4 13
-9 9 -5 -3 -12 -1 -15 4 -4 5 -2 12 3 15 5 4 12 2 16 -4 3 -5 15 -10 26 -10
10 0 19 -7 19 -15 0 -8 7 -15 16 -15 8 0 13 -4 9 -9 -3 -5 0 -13 6 -17 8 -4 9
-3 5 4 -11 18 0 15 39 -10 20 -13 33 -29 30 -36 -9 -24 4 -31 35 -19 32 12 37
36 10 45 -12 4 -13 2 -3 -9 9 -11 7 -16 -13 -26 -13 -6 -24 -8 -24 -3 0 4 8
11 17 15 15 5 12 9 -15 22 -17 8 -32 19 -32 22 0 4 -7 16 -16 27 -8 10 -13 13
-9 6 10 -20 -5 -14 -61 23 -57 38 -64 41 -64 23 0 -18 -31 -48 -50 -48 -10 0
-29 9 -43 20 -14 11 -30 20 -36 20 -11 0 -121 70 -121 77 0 5 48 -22 78 -43
20 -15 22 -15 22 -1 0 9 -10 17 -22 19 -11 2 -22 11 -24 21 -3 22 5 22 21 0 8
-10 19 -14 31 -9 15 6 8 13 -39 44 -32 20 -54 38 -49 40 5 1 33 -13 63 -33 56
-37 69 -41 69 -25 0 6 -6 10 -14 10 -8 0 -21 6 -28 13 -37 34 -74 44 -147 41
-40 -1 -78 -7 -84 -13 -6 -6 -22 -11 -35 -11 -13 0 -20 -4 -17 -10 3 -5 1 -10
-4 -10 -6 0 -11 4 -11 9 0 5 -8 8 -17 6 -10 -2 -21 -4 -25 -4 -5 -1 -8 -8 -8
-16 0 -9 -9 -15 -24 -15 -19 0 -23 -4 -19 -19 6 -22 20 -22 54 0 13 9 41 19
61 23 20 4 38 11 40 16 2 4 10 10 18 12 8 2 18 8 22 13 5 7 8 7 8 0 -1 -25
-41 -55 -80 -61 -8 -1 -28 -9 -45 -18 -16 -9 -35 -16 -42 -16 -6 0 -20 -10
-30 -23 -18 -23 -52 -43 -146 -87 -29 -13 -57 -36 -70 -56 -22 -34 -37 -43
-37 -24 0 6 30 39 66 75 36 35 64 69 62 76 -2 6 -23 -8 -46 -31 -42 -42 -51
-45 -32 -10 16 30 128 112 143 104 6 -4 9 -4 5 1 -27 30 234 132 268 104 8 -7
14 -7 19 1 9 15 66 12 95 -5 31 -18 40 -18 40 -2 0 16 72 91 91 95 19 5 39 22
39 34 0 19 150 128 174 128 6 -1 -8 -13 -32 -27 -33 -19 -40 -28 -30 -35 9 -6
7 -7 -8 -3 -26 7 -71 -26 -60 -44 5 -8 15 -6 34 7 15 10 40 23 55 30 16 7 31
21 34 32 3 11 14 22 25 26 17 5 18 8 7 15 -10 7 -3 9 21 7 l35 -3 -1 -57 -1
-57 23 17 c13 9 24 20 24 25 0 4 5 7 11 7 6 0 32 18 57 40 26 22 80 68 120
102 41 34 85 79 98 100 26 41 47 48 63 21 8 -16 12 -15 48 8 73 49 90 58 126
64 50 10 72 33 74 80 l2 40 -19 -40 c-22 -48 -26 -39 -5 12 8 20 18 33 22 30
7 -8 33 11 33 25 0 5 -5 6 -12 2 -7 -4 -8 -3 -4 4 4 7 14 12 22 12 18 0 17 10
-1 34 -8 11 -15 25 -15 30 0 6 5 4 10 -4 7 -11 10 -3 9 30 0 34 -2 40 -9 25
-8 -20 -9 -19 -9 1 -1 12 7 28 16 35 12 10 15 11 9 1 -4 -7 -3 -18 2 -25 14
-18 21 -67 9 -67 -5 0 -5 -6 2 -13 6 -8 7 -18 3 -22 -4 -5 -1 -5 6 -1 7 4 10
12 7 17 -4 5 -1 9 6 9 6 0 9 8 6 19 -3 14 -1 18 9 14 8 -3 12 -8 9 -12 -2 -4
2 -8 9 -8 9 0 13 14 12 43 0 23 -3 41 -7 38 -4 -2 -9 3 -13 11 -4 11 2 15 22
15 23 0 27 -5 29 -30 1 -17 -1 -29 -5 -26 -4 2 -7 -19 -8 -47 -1 -52 -19 -115
-30 -104 -4 3 -2 20 4 36 9 26 8 32 -8 41 -14 7 -20 6 -24 -7 -4 -9 -1 -20 5
-24 7 -4 9 -16 7 -27 -4 -13 0 -23 10 -27 19 -7 41 13 47 45 2 13 10 27 16 31
8 4 8 9 1 13 -6 4 -9 12 -7 19 9 24 12 107 4 107 -4 0 -6 29 -3 65 3 39 1 65
-5 65 -5 0 -9 8 -9 18 2 29 -23 93 -35 89 -15 -5 -16 -33 -2 -30 6 1 11 -6 12
-15 16 -181 16 -182 2 -182 -8 0 -23 6 -34 14 -11 7 -24 14 -28 14 -4 1 -20
11 -36 24 -29 23 -53 98 -31 98 5 0 10 9 10 21 0 11 -4 18 -9 15 -5 -4 -7 3
-4 14 3 11 0 21 -6 21 -26 3 -30 4 -38 12 -4 5 -8 12 -8 15 -2 20 -18 52 -26
52 -5 0 -7 11 -3 25 8 34 -2 31 -51 -14 -47 -44 -140 -76 -188 -67 -17 3 -36
1 -43 -5 -11 -9 -9 -17 12 -42 20 -24 25 -38 21 -63 -6 -35 -55 -119 -64 -110
-4 3 1 14 9 23 22 25 37 76 31 104 -6 33 -72 111 -73 87 0 -10 5 -18 10 -18
16 0 30 -44 16 -52 -8 -5 -7 -8 2 -8 13 0 42 -23 42 -33 0 -3 -9 -3 -20 0 -11
3 -27 0 -35 -7 -13 -11 -14 -10 -10 3 4 10 -1 17 -13 21 -24 8 -37 23 -47 55
-6 19 -4 23 8 18 9 -3 19 4 27 21 l12 27 -22 -20 c-16 -14 -19 -15 -15 -3 7
16 46 38 71 38 8 0 12 5 9 10 -4 6 -11 8 -16 5 -5 -4 -9 -1 -9 4 0 6 4 11 9
11 5 0 12 8 15 18 6 16 125 99 166 115 8 4 42 4 75 2 33 -2 72 -4 86 -5z m-16
-155 l18 -30 -21 19 c-12 11 -22 26 -22 34 0 17 -1 18 25 -23z m179 -284 c4
-5 1 -11 -5 -13 -6 -2 -2 -13 10 -27 11 -13 18 -28 15 -33 -5 -8 -54 48 -54
62 0 18 25 26 34 11z m-261 -549 c10 -9 15 -22 13 -29 -3 -8 3 -13 17 -14 17
-1 18 -2 4 -6 -21 -6 -67 22 -66 40 0 9 2 9 6 0 2 -7 12 -13 21 -13 13 0 12 3
-4 14 -13 10 -23 11 -31 5 -8 -7 -15 -4 -22 9 -9 17 -7 19 17 14 15 -2 35 -12
45 -20z m115 -187 c-2 -8 -8 -11 -14 -7 -8 5 -9 14 -1 32 8 20 11 22 14 8 3
-10 3 -25 1 -33z m-858 -9 c0 -2 -8 -10 -17 -17 -16 -13 -17 -12 -4 4 13 16
21 21 21 13z m-224 -161 c-3 -8 4 -21 17 -30 21 -15 21 -15 -13 -10 -27 4 -30
3 -15 -4 20 -10 20 -10 -1 -10 -11 -1 -25 4 -32 11 -8 8 -12 8 -12 1 0 -11
-42 -30 -140 -64 -82 -29 -46 -7 43 27 65 24 81 34 92 59 7 17 14 23 14 14 1
-9 8 -16 15 -16 8 0 15 3 14 6 -2 19 3 31 13 31 6 0 9 -7 5 -15z m44 -15 c8
-5 16 -18 16 -29 1 -11 -3 -18 -7 -15 -5 3 -9 10 -9 16 0 6 -8 17 -17 24 -20
15 -6 19 17 4z m787 -222 c-3 -7 -5 -2 -5 12 0 14 2 19 5 13 2 -7 2 -19 0 -25z"/>
<path d="M1741 2510 c-93 -49 -113 -67 -101 -90 5 -10 6 -20 3 -24 -13 -13 9
-5 99 35 51 23 111 48 133 56 51 19 58 25 20 20 -17 -2 -34 -1 -40 3 -14 10
-58 -7 -50 -20 4 -6 -1 -7 -11 -3 -11 4 -15 2 -11 -4 4 -6 -1 -17 -11 -24 -15
-12 -16 -12 -5 2 11 14 8 16 -24 14 -20 0 -38 -6 -41 -13 -2 -7 -8 -9 -14 -6
-6 4 -8 -2 -3 -17 4 -17 3 -20 -3 -10 -8 11 -10 11 -15 0 -4 -10 -6 -9 -6 3
-1 19 54 62 68 54 5 -3 11 1 15 9 3 8 10 15 16 15 6 0 8 -4 5 -10 -3 -5 -2
-10 2 -10 5 0 14 9 21 20 7 12 18 17 29 13 11 -4 14 -3 9 5 -5 9 -2 10 16 2
16 -8 31 -8 48 -1 l25 10 -25 2 c-14 0 -36 3 -50 4 -15 2 -56 -12 -99 -35z"/>
<path d="M1932 2510 c1 -24 4 -28 15 -18 11 9 21 4 50 -23 19 -19 48 -51 63
-71 32 -44 47 -40 20 5 -11 17 -16 35 -13 40 3 6 2 7 -4 4 -9 -6 -46 21 -54
40 -4 9 -65 53 -73 53 -3 0 -4 -13 -4 -30z"/>
<path d="M1844 2456 c-22 -13 -52 -26 -67 -30 -14 -3 -32 -12 -39 -19 -7 -8
-21 -13 -31 -11 -9 1 -17 -3 -17 -9 0 -16 66 -15 82 1 6 6 20 12 30 12 10 0
18 4 18 9 0 5 17 18 37 28 20 11 39 25 41 31 6 18 -8 15 -54 -12z"/>
<path d="M1952 2425 c6 -14 15 -25 21 -25 5 0 6 -8 3 -17 -4 -10 -4 -14 0 -10
4 4 14 -2 22 -14 9 -13 21 -19 33 -16 11 3 17 1 14 -3 -7 -11 22 -40 39 -40 9
0 12 9 8 25 -4 22 -7 24 -20 13 -13 -11 -15 -10 -9 5 4 10 3 16 -2 12 -5 -3
-12 -1 -16 5 -4 6 -10 8 -15 5 -16 -10 -21 14 -9 37 11 21 11 22 -4 9 -14 -11
-17 -11 -18 0 -1 8 -1 17 0 22 0 4 -3 7 -9 7 -5 0 -10 -5 -10 -11 0 -5 -5 -7
-10 -4 -6 4 -8 11 -5 16 4 5 -1 9 -9 9 -13 0 -14 -4 -4 -25z"/>
<path d="M2025 2380 c-3 -6 1 -7 9 -4 18 7 21 14 7 14 -6 0 -13 -4 -16 -10z"/>
<path d="M1610 2370 c-9 -6 -10 -10 -3 -10 6 0 15 5 18 10 8 12 4 12 -15 0z"/>
<path d="M1587 2314 c-4 -4 -7 -14 -7 -23 0 -11 3 -12 11 -4 6 6 10 16 7 23
-2 6 -7 8 -11 4z"/>
<path d="M2065 2280 c-3 -5 -3 -16 1 -22 5 -8 1 -7 -10 1 -16 14 -17 13 -13
-15 6 -32 37 -97 37 -75 0 11 3 11 15 1 8 -7 15 -19 15 -26 0 -8 4 -14 9 -14
5 0 8 8 6 18 -2 9 -4 23 -4 30 -1 7 -5 10 -11 7 -5 -3 -10 4 -10 15 0 17 -4
21 -17 16 -15 -5 -14 -3 2 9 12 10 21 12 23 5 6 -17 18 -11 19 10 2 17 -1 18
-17 10 -27 -15 -33 -12 -27 10 6 22 -8 37 -18 20z"/>
<path d="M2075 1920 c3 -5 10 -10 16 -10 5 0 9 5 9 10 0 6 -7 10 -16 10 -8 0
-12 -4 -9 -10z"/>
<path d="M2041 1873 c-8 -16 -17 -35 -21 -43 -9 -19 5 -60 21 -60 6 0 9 -7 5
-15 -3 -9 0 -15 10 -15 11 0 12 4 4 19 -15 29 -12 39 5 17 17 -23 19 -17 5 18
-8 23 -7 26 11 26 15 0 19 6 17 23 -3 22 -27 57 -39 57 -3 0 -11 -12 -18 -27z
m39 -13 c0 -5 -7 -10 -15 -10 -8 0 -15 5 -15 10 0 6 7 10 15 10 8 0 15 -4 15
-10z m-33 -42 c-3 -8 -6 -5 -6 6 -1 11 2 17 5 13 3 -3 4 -12 1 -19z"/>
<path d="M1900 1730 c0 -5 5 -10 11 -10 5 0 7 5 4 10 -3 6 -8 10 -11 10 -2 0
-4 -4 -4 -10z"/>
<path d="M1837 1714 c-3 -4 13 -16 36 -28 23 -11 42 -28 42 -36 0 -17 17 -40
26 -34 3 2 20 -12 38 -30 l33 -34 -34 -32 c-18 -18 -26 -29 -18 -25 23 12 60
47 60 57 0 16 -114 139 -142 154 -31 16 -32 16 -41 8z"/>
<path d="M1716 1684 c-4 -10 -1 -14 6 -12 15 5 23 28 10 28 -5 0 -13 -7 -16
-16z"/>
<path d="M1940 1682 c0 -5 7 -15 15 -22 8 -7 15 -8 15 -2 0 5 -7 15 -15 22 -8
7 -15 8 -15 2z"/>
<path d="M2002 1666 c-13 -29 -5 -41 15 -21 9 10 11 20 5 30 -7 13 -10 12 -20
-9z"/>
<path d="M1850 1671 c0 -5 14 -21 31 -36 17 -14 29 -28 27 -31 -3 -2 -16 6
-30 18 -14 13 -35 29 -47 36 -18 10 -21 10 -21 -3 0 -8 6 -15 13 -15 6 0 24
-10 39 -23 14 -12 35 -28 45 -35 17 -12 16 -12 -6 -8 -23 5 -23 5 5 -25 32
-34 45 -36 68 -10 16 18 16 18 -5 17 -12 0 -24 6 -26 14 -4 12 -3 12 5 1 6 -8
12 -9 16 -3 8 14 -20 35 -35 26 -7 -4 -9 -3 -6 3 4 6 0 16 -8 23 -8 7 -13 16
-10 20 3 4 -1 12 -8 17 -19 15 -47 23 -47 14z"/>
<path d="M2020 1620 c-20 -12 -5 -24 16 -12 9 5 12 12 7 15 -5 3 -15 2 -23 -3z"/>
<path d="M1682 1595 c-10 -8 -21 -13 -23 -12 -3 1 0 -2 5 -8 5 -7 10 -6 13 1
2 7 12 10 22 7 22 -6 37 12 17 20 -7 3 -23 -1 -34 -8z"/>
<path d="M1603 1562 c4 -5 40 -26 81 -46 79 -38 100 -56 67 -56 -10 0 -22 -6
-24 -12 -4 -10 -6 -10 -6 0 -1 14 -21 7 -21 -7 0 -4 14 -27 30 -50 30 -41 30
-41 60 -26 17 9 30 18 30 21 0 3 -4 3 -9 0 -10 -7 -23 19 -14 28 11 11 24 6
17 -6 -4 -7 -4 -10 1 -6 4 4 14 3 22 -4 7 -6 17 -7 21 -3 4 4 1 10 -6 13 -8 2
-26 18 -40 35 -45 52 -74 77 -90 77 -8 0 -29 8 -46 19 -38 23 -81 37 -73 23z
m174 -142 c12 -31 6 -39 -15 -17 -7 6 -17 13 -22 13 -20 3 -21 4 -8 19 20 22
33 18 45 -15z m23 10 c0 -5 -4 -10 -10 -10 -5 0 -10 5 -10 10 0 6 5 10 10 10
6 0 10 -4 10 -10z"/>
<path d="M2034 1545 c3 -8 1 -15 -4 -15 -6 0 -10 -9 -10 -19 0 -11 -5 -21 -10
-23 -13 -4 -21 -66 -10 -73 5 -3 12 0 16 7 4 6 2 14 -4 16 -7 2 -12 7 -12 12
0 11 33 7 43 -5 5 -5 7 7 5 27 -2 21 0 39 5 41 13 4 -1 47 -15 47 -5 0 -8 -7
-4 -15z"/>
<path d="M1600 1511 c0 -5 -3 -16 -6 -25 -4 -10 0 -15 13 -16 51 -1 63 -5 60
-19 -1 -7 4 -16 11 -19 9 -2 12 3 10 14 -4 23 -55 57 -70 48 -6 -4 -8 -3 -4 4
3 6 2 13 -4 17 -5 3 -10 2 -10 -4z"/>
<path d="M1565 1500 c3 -5 10 -10 16 -10 5 0 9 5 9 10 0 6 -7 10 -16 10 -8 0
-12 -4 -9 -10z"/>
<path d="M1670 1495 c0 -13 47 -27 55 -16 2 4 -9 12 -26 18 -23 9 -29 8 -29
-2z"/>
<path d="M1329 1480 c-2 -15 -6 -30 -9 -32 -1 -2 -4 -12 -6 -23 -2 -11 -6 -33
-10 -49 -5 -21 -4 -27 5 -22 6 4 11 14 11 22 0 8 5 14 11 14 6 0 9 7 6 15 -4
8 -2 17 3 20 13 8 13 65 0 65 -5 0 -11 -4 -11 -10z"/>
<path d="M1538 1461 l44 -28 -47 -7 c-38 -6 -44 -10 -35 -21 6 -8 19 -11 27
-8 12 5 14 3 8 -7 -5 -9 -4 -11 3 -6 7 4 12 3 12 -2 0 -19 36 -1 52 25 l16 26
12 -22 c14 -27 6 -39 -14 -22 -11 9 -15 7 -19 -8 -3 -14 -1 -18 9 -14 8 3 17
-2 20 -11 3 -9 15 -16 26 -16 10 0 17 -4 13 -10 -10 -16 17 -48 36 -43 15 4
16 9 8 25 -6 10 -21 24 -35 30 -23 11 -35 48 -15 48 18 0 41 -12 41 -22 0 -5
-5 -6 -12 -2 -7 4 -8 3 -4 -4 4 -7 14 -12 21 -12 14 0 35 -29 35 -49 0 -6 -14
-18 -31 -26 -34 -18 -33 -31 0 -20 12 3 28 19 36 35 14 26 13 30 -16 66 -41
53 -66 71 -121 89 -25 9 -52 23 -58 31 -7 7 -22 14 -34 14 -16 0 -12 -6 22
-29z m40 -58 c-12 -15 -32 -18 -23 -4 3 5 -3 12 -12 14 -10 2 -4 4 14 3 24 -1
29 -4 21 -13z"/>
<path d="M1506 1455 c5 -12 4 -16 -4 -11 -6 3 -13 2 -17 -3 -3 -6 4 -8 16 -6
30 6 32 10 14 25 -13 11 -14 10 -9 -5z"/>
<path d="M1237 1388 c-51 -36 -58 -48 -26 -48 15 0 19 5 15 15 -4 12 2 15 28
15 32 0 46 13 46 41 0 15 -14 10 -63 -23z"/>
<path d="M1456 1385 c21 -19 60 -41 86 -50 25 -9 49 -23 52 -31 3 -7 10 -14
16 -14 6 0 8 6 4 13 -4 7 -3 9 2 4 12 -12 12 -30 -1 -40 -6 -5 -1 -7 12 -4 31
7 41 -27 16 -55 -18 -21 -18 -21 3 -10 30 16 34 34 17 71 -21 42 -57 70 -112
84 -24 7 -56 24 -70 39 -14 16 -35 28 -45 28 -15 0 -11 -7 20 -35z"/>
<path d="M1866 1375 c-3 -8 -2 -15 3 -15 5 0 12 -10 16 -22 9 -31 19 -5 11 27
-7 28 -21 33 -30 10z"/>
<path d="M1436 1363 c-8 -21 -1 -27 17 -16 12 6 13 10 2 20 -10 10 -15 9 -19
-4z"/>
<path d="M1800 1350 c-19 -16 -29 -30 -23 -30 7 0 27 13 45 30 43 38 24 38
-22 0z"/>
<path d="M1318 1343 c-23 -23 -35 -27 -73 -24 -37 2 -52 -3 -90 -30 -50 -36
-89 -93 -82 -121 3 -11 1 -15 -5 -12 -6 4 -9 1 -6 -7 3 -8 14 -13 26 -11 11 2
23 -2 27 -8 13 -21 21 -9 23 33 2 43 36 87 66 87 8 0 17 7 20 16 3 8 10 13 15
10 8 -5 58 29 95 66 12 13 23 15 41 8 33 -13 65 -42 58 -53 -3 -6 -2 -7 4 -4
11 7 91 -15 121 -34 25 -16 47 -63 37 -80 -5 -7 -3 -10 6 -7 21 8 13 57 -12
85 -13 13 -41 28 -63 34 -65 16 -93 29 -117 55 -29 31 -58 30 -91 -3z"/>
<path d="M1090 1317 c-30 -24 -59 -45 -65 -48 -5 -2 -10 -9 -11 -15 -1 -6 -5
-20 -8 -31 -4 -14 2 -25 24 -41 l30 -23 0 25 c0 29 46 120 69 138 10 8 9 5 -3
-10 -28 -32 0 -28 30 5 19 20 21 28 12 35 -19 11 -18 12 -78 -35z"/>
<path d="M1254 1348 c-3 -4 4 -8 15 -8 12 0 21 4 21 8 0 5 -7 9 -15 9 -9 0
-18 -4 -21 -9z"/>
<path d="M1920 1330 c-12 -7 -12 -12 -2 -22 9 -9 12 -9 12 4 0 9 6 19 13 21 6
3 8 6 2 6 -5 0 -17 -4 -25 -9z"/>
<path d="M2118 1332 c-10 -2 -18 -7 -18 -10 0 -7 40 -36 51 -37 3 0 13 -8 23
-17 10 -10 26 -18 37 -18 11 0 18 -4 15 -8 -3 -4 10 -16 29 -26 25 -14 40 -16
60 -9 26 8 26 10 9 23 -11 9 -15 10 -10 3 4 -7 4 -13 -1 -13 -13 1 -43 27 -37
32 3 4 -3 5 -13 5 -9 -1 -18 5 -18 13 0 9 -8 14 -19 12 -26 -5 -68 19 -62 34
5 13 -20 22 -46 16z"/>
<path d="M1345 1317 c-12 -6 -36 -21 -55 -32 -18 -11 -41 -28 -52 -37 -10 -10
-23 -18 -29 -18 -6 0 -9 -7 -5 -15 4 -10 -1 -14 -17 -12 -23 2 -30 -19 -14
-40 11 -16 31 -17 22 -2 -7 11 22 49 38 49 5 0 22 11 39 25 36 30 62 33 53 6
-3 -12 0 -21 10 -25 8 -3 15 -10 15 -16 0 -6 -11 -3 -24 7 -13 10 -22 22 -19
26 3 5 -4 3 -16 -5 -12 -7 -21 -17 -21 -22 0 -4 8 -2 17 5 15 12 16 12 10 -4
-6 -15 -3 -17 13 -12 11 4 20 4 20 1 0 -7 -38 -46 -44 -46 -2 0 -6 9 -9 20 -7
26 -24 26 -32 1 -4 -12 -12 -18 -21 -14 -8 3 -14 -1 -14 -11 0 -9 -4 -16 -10
-16 -16 0 -12 -50 4 -56 8 -3 25 0 38 7 20 11 20 14 6 17 -22 4 -24 32 -2 32
9 0 18 -9 21 -20 4 -16 9 -18 24 -9 10 5 19 15 19 22 0 7 -4 6 -10 -3 -7 -12
-10 -12 -10 -1 0 20 42 60 57 54 7 -3 10 -9 7 -14 -3 -5 -10 -7 -15 -4 -5 4
-9 -1 -9 -9 0 -8 5 -18 10 -21 6 -3 10 -2 10 4 0 6 6 8 14 5 18 -7 31 15 17
29 -7 7 -7 14 0 24 9 10 7 13 -7 13 -14 0 -15 3 -6 12 18 18 35 -11 19 -31
-10 -12 -9 -14 5 -8 18 6 39 -9 58 -41 8 -15 11 -15 20 -2 5 8 10 11 10 5 0
-5 6 -3 13 5 7 8 17 15 22 16 6 0 23 4 38 8 26 8 26 9 10 22 -11 8 -13 13 -5
14 6 0 12 5 12 11 0 13 -42 1 -52 -15 -13 -19 -9 -29 6 -17 11 9 16 9 22 0 4
-8 3 -9 -4 -5 -7 4 -12 3 -12 -2 0 -5 -13 -9 -28 -10 -21 0 -28 4 -29 20 -2
20 -1 20 13 2 15 -18 15 -18 10 -1 -3 11 -2 16 4 12 6 -3 10 -1 10 4 0 11 -13
15 -37 12 -7 -1 -13 3 -13 9 0 6 -5 8 -10 5 -6 -4 -8 -10 -6 -14 3 -3 -4 -7
-15 -7 -19 0 -18 1 3 18 l23 18 -22 0 c-13 0 -23 -4 -23 -10 0 -5 -4 -10 -10
-10 -5 0 -10 4 -10 10 0 16 49 23 65 10 8 -7 24 -10 35 -7 10 3 18 2 17 -2 -4
-11 8 -14 31 -7 12 4 20 12 16 17 -3 5 -10 7 -15 4 -5 -4 -9 -2 -9 3 0 5 -16
14 -36 20 -28 8 -35 8 -31 -2 4 -9 -7 -8 -33 5 -47 23 -54 23 -70 4 -18 -21
-35 -19 -19 3 13 16 13 16 -5 2 -17 -13 -19 -13 -14 0 5 15 10 17 61 19 16 1
26 5 22 11 -4 6 -11 8 -16 5 -5 -4 -9 -1 -9 4 0 14 -10 14 -35 -2z m45 -62
c-14 -8 -21 -14 -15 -15 5 0 4 -5 -2 -11 -7 -7 -20 -9 -30 -5 -16 7 -16 9 7
26 14 11 34 19 45 19 18 0 17 -1 -5 -14z m70 -85 c0 -5 -4 -10 -10 -10 -5 0
-10 5 -10 10 0 6 5 10 10 10 6 0 10 -4 10 -10z"/>
<path d="M1535 1310 c-3 -5 -2 -10 4 -10 5 0 13 5 16 10 3 6 2 10 -4 10 -5 0
-13 -4 -16 -10z"/>
<path d="M1810 1290 c-12 -12 -36 -45 -56 -75 -19 -30 -36 -55 -37 -55 -1 0
-2 16 -3 35 -1 36 -9 53 -20 42 -4 -3 -2 -25 4 -49 8 -30 8 -46 0 -55 -6 -7
-6 -13 -2 -13 5 0 15 9 22 20 7 12 18 18 25 14 7 -4 9 -4 5 1 -7 7 14 56 34
82 5 6 16 9 23 7 11 -5 12 -10 3 -24 -7 -10 -16 -16 -20 -14 -4 3 -8 -3 -8
-13 0 -11 -5 -24 -12 -31 -12 -12 -19 -72 -9 -72 17 2 111 148 111 173 0 15 2
27 4 27 8 0 154 -99 160 -109 7 -11 19 -115 17 -148 0 -13 4 -23 11 -23 10 0
8 101 -4 150 -5 22 -50 70 -65 70 -8 0 -11 5 -8 10 3 6 -1 10 -10 10 -8 0 -33
12 -55 26 -21 14 -44 23 -49 19 -6 -3 -11 -1 -11 4 0 18 -29 12 -50 -9z m48
-27 c0 -17 -11 -40 -27 -58 -15 -16 -37 -43 -49 -59 -12 -16 -22 -25 -22 -20
0 5 13 25 29 45 16 19 31 44 33 55 1 10 8 23 13 27 6 5 0 7 -12 4 -25 -6 -29
3 -11 21 22 22 45 14 46 -15z"/>
<path d="M1560 1296 c0 -2 7 -7 16 -10 8 -3 12 -2 9 4 -6 10 -25 14 -25 6z"/>
<path d="M1760 1280 c0 -11 2 -20 5 -20 2 0 9 9 15 20 9 16 8 20 -5 20 -8 0
-15 -9 -15 -20z"/>
<path d="M1880 1262 c0 -4 5 -13 11 -19 7 -7 -1 -19 -28 -42 -41 -34 -39 -40
6 -16 16 8 31 12 34 9 3 -3 3 3 0 14 -2 11 0 23 7 27 8 5 8 10 -1 21 -13 15
-29 19 -29 6z"/>
<path d="M1916 1217 c2 -7 21 -20 42 -28 57 -22 59 -22 33 0 -12 12 -27 19
-31 16 -4 -3 -13 2 -20 10 -15 19 -31 20 -24 2z"/>
<path d="M1620 1165 c-10 -12 -10 -15 1 -15 9 -1 5 -9 -10 -21 -13 -11 -30
-18 -37 -15 -18 7 -29 -13 -15 -27 8 -8 15 -6 27 9 8 10 13 13 9 7 -3 -7 -2
-13 3 -13 6 0 12 7 16 15 7 19 26 20 26 2 0 -8 -12 -19 -26 -26 -15 -6 -24
-14 -22 -17 3 -2 24 4 48 15 50 22 81 18 55 -8 -14 -14 -17 -14 -25 -1 -8 12
-13 11 -31 -9 l-22 -24 31 5 c18 2 32 1 32 -4 0 -8 -16 -12 -34 -9 -4 1 -15
-4 -24 -11 -12 -11 -16 -11 -20 1 -9 28 -44 53 -66 47 -36 -9 -134 -56 -102
-49 22 4 27 3 24 -8 -3 -8 -12 -13 -21 -13 -9 1 -13 -4 -10 -12 7 -19 42 -18
49 1 4 10 13 13 25 10 12 -4 21 1 28 14 13 24 14 34 2 26 -5 -3 -12 -1 -15 4
-4 5 4 11 16 13 24 3 58 -25 58 -48 0 -26 89 15 115 54 29 42 24 56 -19 49
-29 -5 -31 -3 -32 25 -2 38 -17 54 -34 33z m-110 -134 c0 -13 -25 -20 -40 -11
-10 6 -8 9 6 13 31 8 34 7 34 -2z"/>
<path d="M1666 1171 c-3 -5 1 -14 9 -21 10 -9 15 -9 15 -1 0 6 -5 11 -11 11
-5 0 -7 5 -4 10 3 6 4 10 1 10 -3 0 -7 -4 -10 -9z"/>
<path d="M1890 1159 c-8 -13 -17 -18 -28 -14 -9 3 -13 3 -10 -1 12 -11 -11
-44 -30 -43 -16 1 -16 2 1 6 18 5 24 23 7 23 -13 0 -60 -49 -60 -62 0 -5 6 -8
13 -5 6 2 11 10 10 16 -4 17 17 13 23 -4 8 -20 24 -19 24 1 0 10 5 14 16 10 8
-3 13 -2 10 3 -3 5 8 23 24 41 17 18 30 36 30 41 0 17 -19 9 -30 -12z"/>
<path d="M1157 1154 c-12 -12 -8 -41 8 -54 12 -10 15 -10 14 1 -2 30 -14 60
-22 53z"/>
<path d="M1550 1143 c-19 -8 -50 -27 -69 -41 -26 -19 -33 -22 -28 -8 4 10 1
19 -8 22 -8 4 -13 10 -10 14 11 18 -25 17 -46 -1 -20 -18 -21 -19 -3 -19 14 0
16 -2 6 -9 -10 -6 -8 -10 8 -14 13 -3 23 0 27 9 3 8 9 14 15 14 5 0 6 -6 1
-12 -24 -39 2 -52 33 -17 10 12 43 32 72 45 28 13 52 26 52 29 0 8 -11 5 -50
-12z"/>
<path d="M1921 1137 c-13 -21 -12 -21 5 -5 10 10 16 20 13 22 -3 3 -11 -5 -18
-17z"/>
<path d="M568 1122 c-16 -9 -28 -22 -28 -28 0 -7 -3 -14 -7 -17 -5 -2 -2 -2 6
0 8 2 11 -2 7 -12 -7 -20 11 -19 22 1 5 9 12 14 17 12 4 -1 9 12 11 30 2 17 3
32 1 32 -1 0 -14 -8 -29 -18z"/>
<path d="M1020 1125 c0 -7 -7 -21 -16 -29 -14 -15 -14 -16 0 -16 9 0 16 7 16
15 0 8 7 15 15 15 8 0 15 4 15 9 0 5 -7 11 -15 15 -9 3 -15 0 -15 -9z"/>
<path d="M1079 1093 c-2 -32 -3 -33 -6 -10 -4 23 -7 26 -19 16 -15 -13 -20
-34 -5 -24 5 3 12 -3 16 -14 8 -27 45 -16 45 14 0 60 -29 75 -31 18z"/>
<path d="M1320 1112 c0 -7 13 -21 30 -30 36 -21 39 -32 6 -30 -14 1 -23 5 -20
9 2 4 -3 12 -10 18 -10 8 -16 9 -21 1 -3 -5 -15 -10 -26 -10 -11 0 -26 -6 -33
-13 -11 -11 -7 -13 23 -14 20 0 55 -2 79 -4 52 -4 77 19 38 36 -13 6 -25 15
-26 20 -1 6 -7 9 -13 7 -5 -2 -14 3 -18 10 -7 11 -9 11 -9 0z"/>
<path d="M1525 1090 c-3 -5 -1 -10 4 -10 6 0 11 5 11 10 0 6 -2 10 -4 10 -3 0
-8 -4 -11 -10z"/>
<path d="M505 1040 c3 -5 8 -10 11 -10 2 0 4 5 4 10 0 6 -5 10 -11 10 -5 0 -7
-4 -4 -10z"/>
<path d="M1191 1017 c-1 -16 3 -26 9 -22 6 3 10 -1 10 -9 0 -9 15 -23 33 -32
17 -9 41 -24 52 -33 20 -16 20 -16 1 7 -11 12 -15 22 -11 22 4 0 0 9 -10 20
-10 11 -20 18 -23 15 -9 -9 -43 16 -52 38 -8 21 -9 20 -9 -6z"/>
<path d="M1300 1015 c9 -11 23 -14 44 -10 l31 6 -25 -15 c-25 -16 -25 -16 10
-9 19 3 37 7 39 9 10 9 -11 17 -43 18 -19 1 -38 5 -42 9 -14 14 -26 7 -14 -8z"/>
<path d="M1550 1013 c1 -26 24 -111 34 -120 4 -4 5 18 2 50 -3 32 -12 65 -21
73 -13 14 -15 14 -15 -3z"/>
<path d="M2062 930 c0 -19 2 -27 5 -17 2 9 2 25 0 35 -3 9 -5 1 -5 -18z"/>
<path d="M1356 922 c-3 -5 1 -9 9 -9 8 0 15 4 15 9 0 4 -4 8 -9 8 -6 0 -12 -4
-15 -8z"/>
<path d="M1327 903 c-14 -22 -46 -117 -42 -124 3 -4 2 -9 -3 -11 -12 -5 -52
-65 -52 -78 0 -7 11 -2 24 11 13 12 34 24 47 26 19 2 21 1 9 -7 -8 -5 -11 -10
-7 -10 4 0 3 -9 -3 -21 -7 -12 -18 -18 -26 -15 -8 3 -14 -1 -14 -10 0 -32 35
-7 70 51 47 77 76 163 61 178 -8 8 -11 1 -11 -25 0 -19 -6 -40 -12 -45 -19
-14 -50 -24 -43 -14 3 5 -1 12 -7 14 -16 7 8 27 31 27 11 0 9 -4 -5 -15 -19
-16 -19 -16 1 -13 16 3 20 11 20 41 1 39 -13 50 -22 17 -3 -11 -9 -20 -15 -20
-5 0 -4 9 2 21 11 20 8 40 -3 22z m-26 -106 c-10 -9 -11 -8 -5 6 3 10 9 15 12
12 3 -3 0 -11 -7 -18z m46 -15 c-10 -10 -14 -22 -10 -27 5 -4 0 -5 -9 -2 -9 3
-19 1 -21 -6 -2 -7 -7 -9 -11 -6 -9 8 4 40 14 34 4 -3 13 2 20 10 7 8 17 15
23 15 5 0 3 -8 -6 -18z"/>
<path d="M1495 830 c-27 -16 -47 -30 -43 -30 11 0 118 50 118 55 0 12 -29 2
-75 -25z"/>
<path d="M1215 656 c-11 -9 -15 -16 -10 -16 15 -1 -58 -39 -75 -39 -8 0 3 9
25 19 34 17 36 18 10 13 -48 -10 -70 -20 -85 -39 -10 -14 -10 -16 -1 -7 11 9
17 8 28 -3 15 -15 55 -10 62 8 4 11 52 32 68 29 18 -3 24 14 10 33 -11 15 -14
15 -32 2z"/>
<path d="M1210 589 c0 -5 5 -7 10 -4 6 3 10 8 10 11 0 2 -4 4 -10 4 -5 0 -10
-5 -10 -11z"/>
<path d="M1173 575 c-13 -7 -21 -14 -18 -17 3 -2 -7 -3 -23 -1 -15 3 -35 -3
-47 -12 -16 -13 -16 -15 -3 -11 9 3 19 0 22 -7 2 -7 5 -6 5 4 1 11 9 15 29 12
28 -3 67 19 61 34 -2 5 -14 4 -26 -2z"/>
</g>
</svg>
