<svg version="1.1" id="Layer_1" xmlns="http://www.w3.org/2000/svg" xmlns:xlink="http://www.w3.org/1999/xlink" x="0px" y="0px"
	 width="100%" viewBox="0 0 592 592" enable-background="new 0 0 592 592" xml:space="preserve">
<path fill="#000000" opacity="1.000000" stroke="none" 
	d="
M593.000000,226.000000 
	C593.000000,348.272308 593.000000,470.544647 593.000000,593.000000 
	C426.644073,593.000000 260.288086,593.000000 93.597610,592.773987 
	C93.405807,588.686157 92.024628,584.415710 95.657631,581.401978 
	C100.000679,577.799255 99.626053,573.615479 97.295868,569.296570 
	C94.688705,564.464294 91.915276,559.711121 89.000389,555.057495 
	C82.353928,544.446350 73.395851,538.730225 60.156738,538.783325 
	C47.662712,538.833435 35.210842,541.211426 22.765356,539.688721 
	C17.095753,538.995056 13.948536,541.100830 11.631498,545.799805 
	C10.013653,549.080811 9.808982,552.520081 10.013164,556.031921 
	C10.201091,559.264038 9.328440,562.151123 8.246792,565.202332 
	C6.639445,569.736511 3.640385,573.213379 1.000000,577.000000 
	C1.000000,464.644012 1.000000,352.288055 1.172351,239.708893 
	C1.887404,240.482132 2.134820,242.523560 3.072598,242.272629 
	C8.757361,240.751541 9.827792,246.016907 12.595704,248.579666 
	C14.632838,250.465790 16.517015,252.557602 19.428242,251.886185 
	C25.553242,250.473587 31.850761,249.546356 37.098354,245.480057 
	C40.905613,242.529877 45.022903,239.975082 49.041302,237.303162 
	C55.364391,233.098816 60.251156,227.911880 61.472942,220.021515 
	C62.039833,216.360519 63.594582,213.052460 65.331306,209.788620 
	C68.962128,202.965240 72.260994,195.876968 71.071144,187.918549 
	C69.127609,174.919098 75.732994,165.660843 83.727798,156.815796 
	C92.689018,146.901550 103.996315,140.347198 115.323418,133.560806 
	C126.969917,126.583038 138.954773,122.349693 152.607025,122.962776 
	C157.015656,123.160759 161.653244,122.164627 164.720352,119.029434 
	C177.787628,105.672020 191.176758,92.301811 186.863007,70.870796 
	C186.165558,67.405869 186.470352,63.941402 187.125458,60.450874 
	C187.674545,57.525112 188.250702,54.447166 187.914917,51.540569 
	C186.647522,40.569561 187.229813,29.574190 187.109344,18.593611 
	C187.030533,11.408119 183.854141,5.871670 179.000000,1.000000 
	C269.689301,1.000000 360.378632,1.000000 451.320068,1.291056 
	C449.042206,7.267882 446.364532,13.207663 450.269653,19.068697 
	C454.502747,25.422066 458.271454,32.142982 463.495972,37.807983 
	C467.076813,41.690769 469.227448,46.335346 470.806213,51.306942 
	C475.252502,65.308571 474.730286,79.084785 469.287872,92.753601 
	C467.321594,97.691917 465.858368,102.829651 464.139343,107.867432 
	C459.491913,121.487167 461.556854,134.287781 471.145264,144.722748 
	C480.582092,154.992661 488.575836,166.586746 499.267181,175.700928 
	C503.576447,179.374466 508.040588,182.915970 511.393951,187.526093 
	C514.874329,192.310928 519.396179,195.209564 525.040710,196.981232 
	C531.661438,199.059326 538.575012,200.812988 543.600708,206.203751 
	C547.055176,209.909164 551.188171,212.847183 555.674561,214.949600 
	C561.983093,217.905884 567.417847,221.673782 571.815308,227.124725 
	C574.618042,230.598953 578.420227,231.209717 582.675476,229.651154 
	C586.101074,228.396439 589.292358,226.456543 593.000000,226.000000 
M158.678391,457.167023 
	C160.909225,458.252106 162.145554,460.752106 165.172394,461.609741 
	C171.596512,450.838104 173.869629,439.434082 170.666092,427.157715 
	C169.859772,424.067810 167.997742,421.609192 164.095139,421.443085 
	C161.591385,429.181641 160.483353,437.145538 157.215027,444.379913 
	C155.174622,448.896301 154.196289,452.993713 157.307114,456.918274 
	C154.952713,456.025024 152.998764,456.734741 151.572708,458.647217 
	C147.517639,464.085602 143.227051,469.389771 139.671890,475.143890 
	C137.542358,478.590546 136.037109,482.655487 136.482635,486.972870 
	C136.676666,488.853119 137.470215,490.691376 139.537796,491.076202 
	C141.556931,491.452087 141.705765,489.367920 142.403122,488.175201 
	C144.063004,485.336273 145.235931,482.129913 148.257233,480.341278 
	C157.302933,474.986053 160.042023,467.011749 158.678391,457.167023 
M319.979340,73.982536 
	C319.979340,73.982536 320.012787,74.007401 319.515594,73.536896 
	C313.651550,68.501457 307.967560,70.820183 302.644928,74.332870 
	C299.633789,76.320084 297.704712,76.679153 294.565979,74.159508 
	C289.955505,70.458397 284.737854,67.305473 278.376801,67.383545 
	C268.640533,67.503044 261.785065,73.403961 254.987930,79.260368 
	C252.872009,81.083443 251.194290,82.184799 248.026398,81.631004 
	C242.962738,80.745819 237.782501,81.309555 232.797470,83.082634 
	C218.608109,88.129517 212.032104,99.336212 208.356018,112.954147 
	C207.645859,115.584908 207.747284,118.641411 204.048126,119.453789 
	C188.933685,122.773094 182.280365,134.774384 182.617630,150.031387 
	C182.758774,156.415878 182.650406,161.268402 175.757202,163.480804 
	C175.040771,163.710770 174.525925,164.573257 173.921112,165.146011 
	C159.781143,178.536224 161.323044,195.774323 162.094940,212.901413 
	C164.120087,210.395660 165.713135,207.739914 167.014328,204.948166 
	C170.882248,196.649414 176.709259,190.660645 186.040771,189.075104 
	C189.896942,188.419907 193.691803,189.028244 196.521072,192.353577 
	C192.212402,191.610947 188.007996,190.807938 184.005112,193.266846 
	C178.899414,196.403168 175.197662,200.673141 172.602753,206.119904 
	C167.176422,217.509842 166.457184,229.787155 165.431152,242.019211 
	C165.334076,243.176544 164.784485,244.765747 167.088928,245.555450 
	C169.228134,242.862198 171.386490,239.973740 173.728470,237.242737 
	C176.237549,234.316879 179.464447,232.217392 182.679306,230.160431 
	C191.075409,224.788376 199.607437,225.593536 206.797287,232.494308 
	C209.158203,234.760300 211.285950,237.269211 213.539108,239.687225 
	C214.779526,238.486282 214.726501,237.039749 214.520706,235.807312 
	C213.375900,228.951553 212.897293,221.944839 210.455780,215.364426 
	C209.497192,212.780884 209.538956,210.622192 210.467514,207.872971 
	C214.091003,197.144791 215.598206,186.119614 211.334167,175.218353 
	C210.250732,172.448471 210.767288,171.051285 212.584610,169.248856 
	C222.346954,159.566528 226.197098,147.448929 226.583435,134.063461 
	C226.826645,125.637009 226.727112,125.813110 234.350067,122.503906 
	C245.064484,117.852669 253.850784,110.721840 258.150635,99.659157 
	C259.686584,95.707428 261.150177,95.658501 264.531158,96.050644 
	C274.821594,97.244186 285.285828,97.856133 294.766663,92.823616 
	C298.640381,90.767403 301.531494,91.375237 304.945618,92.907738 
	C316.034515,97.885178 327.510529,101.703911 339.258514,104.856499 
	C345.486206,106.527702 351.867340,106.397011 358.597382,107.009407 
	C351.809113,115.172173 350.878235,122.294098 359.558624,129.545609 
	C362.628632,132.110245 365.434082,135.044434 367.234192,138.652390 
	C369.489471,143.172607 371.881104,147.832077 367.845917,153.378387 
	C362.586243,143.449066 353.959930,139.291809 343.861603,137.208893 
	C333.470734,135.065674 323.613434,136.673767 314.370544,141.435120 
	C303.880371,146.838974 297.031586,158.326813 299.004944,166.216415 
	C301.455139,166.323624 301.729004,164.126877 302.619629,162.688599 
	C305.936066,157.332932 310.070526,152.981796 316.052795,150.518051 
	C323.699860,147.368668 329.455536,149.927094 331.862854,157.781555 
	C332.251495,159.049667 332.516510,160.356491 332.923920,161.617905 
	C335.268494,168.877533 339.971497,173.598328 347.700165,174.626328 
	C355.482574,175.661499 361.231140,172.585617 364.767761,165.475922 
	C365.256592,164.493240 365.624695,162.917450 366.973907,163.023178 
	C373.580231,163.540909 375.735779,158.483505 377.946747,154.012405 
	C383.235596,143.317276 383.964111,132.025208 380.785797,120.603996 
	C379.294678,115.245575 378.041199,109.637383 372.414459,106.445938 
	C370.032288,105.094788 367.188293,106.194260 364.969604,104.671501 
	C365.737732,102.491348 367.464478,101.609009 368.662048,100.266159 
	C369.659088,99.148170 370.889801,98.084656 370.216675,96.356506 
	C369.559204,94.668488 368.233093,93.671440 366.441864,93.492447 
	C365.122986,93.360649 363.705200,93.172478 362.461334,93.501015 
	C352.252655,96.197449 344.042297,92.081871 336.128998,86.276764 
	C330.658447,82.263641 326.499573,76.530586 319.979340,73.982536 
M429.862732,353.525085 
	C432.484802,353.341766 434.131165,355.022797 435.871368,356.598328 
	C440.227783,360.542419 445.905243,359.205200 451.377930,359.997559 
	C451.377930,362.434235 451.343445,364.572266 451.383331,366.708923 
	C451.746765,386.179016 465.663422,408.011993 487.189423,412.047638 
	C492.700165,413.080780 498.389496,413.202881 504.005859,413.621246 
	C512.730530,414.271149 521.053833,416.066620 528.413757,421.172241 
	C534.800354,425.602631 539.298157,431.825409 544.296143,437.573395 
	C545.557129,439.023590 546.400696,440.934418 549.454529,440.347839 
	C545.758850,425.770721 535.333191,416.312836 525.812805,406.116852 
	C546.200256,414.460388 560.393372,429.250702 570.337585,448.875824 
	C572.175171,444.406067 572.417908,439.826843 571.143066,435.762909 
	C566.476135,420.885956 560.654907,406.537659 552.305969,393.166168 
	C540.192932,373.766235 525.968201,356.571075 506.292114,344.453369 
	C497.937622,339.308228 489.015717,336.280945 478.913269,337.277130 
	C473.553314,337.805634 469.526245,341.144714 464.596497,343.122040 
	C461.717651,336.820770 457.069061,332.128265 450.470184,331.633759 
	C443.706360,331.126953 437.092102,332.507874 430.192963,329.714417 
	C425.221130,327.701263 419.427032,330.516510 414.392822,332.823456 
	C407.139191,336.147461 402.515015,341.244995 403.349457,349.890167 
	C403.556854,352.038574 403.320404,354.227448 403.477753,356.383850 
	C403.599884,358.057495 402.927094,359.093719 401.359802,359.119263 
	C395.809143,359.209656 392.959564,362.403625 391.640045,367.893524 
	C386.942749,364.471222 381.100311,363.918030 377.417908,359.450684 
	C373.887207,355.167358 368.982208,352.564423 363.932800,351.302307 
	C356.882965,349.540161 350.149536,347.207428 343.548889,344.273010 
	C336.333862,341.065491 328.233063,341.072876 320.948090,337.488678 
	C314.494415,334.313477 306.773743,333.766357 300.203491,330.765076 
	C282.949799,322.883545 265.287750,319.327454 246.531921,323.457581 
	C231.773560,326.707428 219.501648,333.620178 212.450104,347.740784 
	C211.463760,349.715912 209.535126,352.097931 212.563492,353.760071 
	C220.208374,357.955933 223.936447,364.627808 225.451324,372.886169 
	C225.692734,374.202240 226.101761,375.531128 228.079041,375.333801 
	C232.754135,361.317078 237.420105,347.363586 248.952271,336.948517 
	C259.051361,327.827698 277.688782,324.089325 290.666351,329.720215 
	C286.603149,330.912323 282.819702,330.147522 279.110168,330.354095 
	C268.457275,330.947296 259.090027,334.497528 251.160782,341.850555 
	C241.495270,350.813660 236.608353,362.267365 233.293365,374.652863 
	C232.035599,379.352203 230.024826,384.123199 237.097366,386.952087 
	C229.874252,385.410950 223.047058,386.472168 216.198624,385.654816 
	C209.407288,384.844299 202.732864,382.986267 195.283112,382.343597 
	C196.546478,391.835480 198.230820,400.434906 203.201920,407.891235 
	C205.752274,411.716583 209.437317,413.603180 214.443039,411.634827 
	C218.632126,409.987640 222.732941,408.212219 226.738403,406.174438 
	C234.178772,402.389160 241.895081,399.593475 250.251144,398.344452 
	C253.029022,397.929199 256.250793,398.517609 258.772736,396.680206 
	C259.148956,392.402832 254.954941,391.853882 253.314270,389.431793 
	C254.783981,383.730499 255.598419,377.983856 256.763916,372.318726 
	C259.355194,359.723541 264.423798,348.564697 277.250671,343.005646 
	C287.928894,338.377808 299.156403,338.183167 310.495300,339.019073 
	C310.602264,339.026978 310.674683,339.503357 310.872131,340.077911 
	C303.298981,340.470642 296.035095,341.882446 288.945526,344.313049 
	C268.867859,351.196442 257.606323,366.783234 258.344208,386.680542 
	C258.475647,390.224365 259.698578,392.143524 263.434692,392.755493 
	C268.695221,393.617126 273.869080,395.007904 280.179352,396.418091 
	C276.896362,398.263885 274.658630,399.522003 272.366852,400.810516 
	C267.072693,397.134705 262.325470,397.768463 257.230591,401.545380 
	C252.429291,405.104675 248.219467,409.330170 245.530167,414.319946 
	C237.218369,429.741852 234.975815,435.550812 244.526306,444.822021 
	C240.213699,450.977081 239.749756,457.650421 243.635147,463.963867 
	C248.317230,471.571808 255.821548,471.599518 263.384888,469.652008 
	C264.712219,471.385712 264.361755,473.114227 264.352936,474.738708 
	C264.286316,487.042328 269.217316,497.260406 277.376099,506.135315 
	C293.964813,524.180054 316.580597,529.838257 339.109619,533.093628 
	C357.065979,535.688416 375.697815,533.625427 394.029633,533.573486 
	C395.515045,533.569275 397.542725,534.066895 397.743225,531.578125 
	C396.945740,530.250244 395.680878,530.433167 394.558319,530.414551 
	C384.420197,530.246277 374.288391,530.514954 364.154114,529.460327 
	C355.190735,528.527649 346.338043,527.290894 337.993042,523.826233 
	C334.522430,522.385315 330.803528,520.921997 328.152924,516.565674 
	C357.069092,522.603333 385.009216,523.832458 414.096985,514.204224 
	C412.313202,513.009155 411.938446,512.665771 411.497253,512.481750 
	C410.579773,512.099121 409.641052,511.752899 408.686798,511.475067 
	C387.022125,505.167938 368.446869,493.601318 352.127686,478.216003 
	C340.739960,467.479950 331.725983,454.502838 320.006073,444.080444 
	C307.027313,432.538513 290.190765,429.940613 277.142303,442.981598 
	C276.338562,443.784882 275.536102,444.710449 273.861023,444.477539 
	C271.601349,441.451935 268.891388,438.570679 264.627991,437.926758 
	C264.314301,431.521057 265.051483,425.472321 266.847931,419.575653 
	C267.609375,417.076233 268.919067,416.029816 272.062683,416.788055 
	C277.258118,418.041199 282.190186,419.797089 287.064636,421.909424 
	C290.174500,423.257019 293.704437,424.120972 296.558258,421.797974 
	C299.208801,419.640472 301.477692,419.494110 304.674072,420.373627 
	C308.481628,421.421356 311.680298,419.295563 313.198944,415.824066 
	C314.611694,412.594727 315.241516,408.848602 311.703644,406.331390 
	C308.372253,403.961151 304.986633,405.022461 302.017944,407.267792 
	C300.734497,408.238464 299.838043,409.720734 298.583984,411.182556 
	C293.642914,406.766205 289.113739,402.718018 283.790771,397.960297 
	C289.663177,398.609131 289.992157,395.685211 289.397247,391.832550 
	C288.049500,383.104858 289.324005,374.457916 292.963654,366.661133 
	C298.852081,354.047211 313.320007,349.238251 326.238251,351.118958 
	C330.438354,351.730408 334.548828,352.957794 338.615326,353.884125 
	C341.509918,347.657166 344.262695,346.475159 349.578522,349.232025 
	C346.246490,351.762695 342.448059,353.645081 340.818451,357.772125 
	C338.660248,357.131989 336.788269,356.511169 334.882507,356.022064 
	C322.734344,352.904449 311.718384,354.731201 302.932068,364.227203 
	C293.268982,374.670837 292.405212,387.362823 294.621826,400.608429 
	C294.938965,402.503601 296.468170,403.487183 298.409821,402.668854 
	C303.941559,400.337463 308.804474,402.560028 313.698425,404.719543 
	C315.019409,405.302490 316.198212,406.479187 317.830414,405.682404 
	C319.486084,385.587433 319.486084,385.587433 323.663879,382.689789 
	C324.234314,384.513275 323.060211,385.900635 322.516632,387.371399 
	C320.507050,392.808838 319.886566,398.261108 321.343750,403.975433 
	C321.945343,406.334534 322.673492,407.498291 325.371643,406.922424 
	C329.616760,406.016479 333.635162,406.800903 337.244995,409.340790 
	C338.223297,410.029144 339.254181,410.606750 340.418823,409.666290 
	C344.935730,391.778229 348.963226,385.491394 356.141510,385.220184 
	C355.719818,386.993286 354.276581,387.967346 353.074219,389.023285 
	C345.655396,395.538544 343.462769,403.855682 344.357941,413.349609 
	C344.685089,416.819244 346.716095,419.063660 349.839569,418.263855 
	C355.092194,416.918854 355.719757,419.543396 355.324219,423.430237 
	C355.090851,425.722992 356.558472,427.921143 355.516296,430.531555 
	C345.811371,429.284088 342.163116,422.318634 340.247711,412.848236 
	C336.063751,418.780457 336.732300,423.675446 338.716797,429.271332 
	C327.380707,428.390686 326.054077,418.043243 321.098724,411.622345 
	C318.957031,413.303406 318.547638,415.025574 318.387238,416.893158 
	C317.698425,424.913788 323.998901,432.068024 332.375519,431.448273 
	C339.747528,430.902893 346.834656,432.688568 354.081207,432.628845 
	C356.283264,432.610687 357.410675,433.785889 358.231506,435.566162 
	C363.881012,447.819122 374.610657,452.882019 386.896515,455.536194 
	C388.911896,455.971619 391.192383,457.875977 393.473145,455.600983 
	C392.740753,453.160278 390.330261,453.275085 388.683472,452.461121 
	C377.264801,446.817291 372.418396,436.288025 375.908936,424.372833 
	C377.684845,418.310638 380.187012,417.443420 385.201538,421.078674 
	C391.421570,425.587860 395.622375,431.194855 395.412201,439.302338 
	C395.381409,440.488892 395.503754,441.674316 397.610535,442.311584 
	C403.307281,436.635376 399.527466,429.209595 400.344757,422.421265 
	C406.744629,425.289764 411.408875,431.634369 420.060089,430.006104 
	C413.308105,423.876434 408.215790,417.641357 405.800568,408.631195 
	C422.402771,411.954193 426.337738,425.166443 430.733643,437.960602 
	C431.796570,437.047241 432.243042,436.851349 432.261688,436.620911 
	C433.652313,419.406494 433.109955,406.603333 413.872284,396.510437 
	C411.728973,395.385986 409.951691,394.349976 409.661255,391.524292 
	C409.091370,385.979523 405.953308,382.060089 401.100128,379.449738 
	C399.389771,378.529816 397.230194,377.997009 397.481689,375.233307 
	C399.371399,374.761475 401.346710,374.462311 403.167419,373.761383 
	C405.159546,372.994415 406.932648,371.231293 408.933411,370.987640 
	C417.725037,369.916992 419.751251,367.924957 420.673340,358.827087 
	C420.934753,356.247803 421.651062,353.714661 422.147095,351.218994 
	C425.055267,350.990875 426.919006,352.674622 429.862732,353.525085 
M267.521118,279.109955 
	C268.845825,275.697388 267.868744,271.578827 270.626648,268.316254 
	C271.795807,269.429565 272.699799,270.396454 273.711548,271.233124 
	C276.320984,273.391052 279.221741,274.637177 282.397919,272.625763 
	C285.491669,270.666504 284.490845,267.829346 283.680847,265.015167 
	C282.074890,259.435425 280.959015,253.793503 280.401581,247.957016 
	C280.067352,244.457397 280.739838,240.226059 277.405182,237.248398 
	C272.103424,238.977432 272.824890,244.498596 270.459106,248.164398 
	C269.137604,246.054276 269.945435,244.344009 270.333374,242.570969 
	C271.156433,238.809113 270.340881,235.268936 268.285492,232.081619 
	C266.753510,229.705917 264.495789,228.211517 261.566223,228.585098 
	C258.583832,228.965454 257.059967,230.978622 256.290771,233.844284 
	C254.745117,239.602890 255.217316,245.405807 255.763412,251.188156 
	C256.609772,260.149994 256.599426,269.064575 255.708374,278.038025 
	C254.957581,285.598907 249.600464,292.141571 251.695938,299.899811 
	C249.824463,300.587280 248.778137,299.931641 247.779358,299.387787 
	C240.085876,295.198822 231.805481,292.789917 223.177261,291.784546 
	C205.129990,289.681610 189.547958,294.245117 178.046310,309.238281 
	C175.894394,312.043457 175.481522,314.553894 177.705032,317.795624 
	C180.765869,322.258118 185.435898,325.104950 188.499664,329.454834 
	C189.440796,330.791046 191.686798,332.008972 190.091476,334.112274 
	C188.104309,336.732208 189.949081,338.121185 191.645004,339.433014 
	C195.448013,342.374878 199.548599,344.957764 203.171448,348.098145 
	C205.760345,350.342316 207.093399,350.327148 208.848343,347.257507 
	C212.386154,341.069366 215.978729,334.857056 220.807144,329.554565 
	C230.014053,319.443665 241.611313,315.491791 255.151398,316.242584 
	C260.517456,316.540192 265.718018,318.036041 271.142639,318.099182 
	C262.643555,310.291718 252.300308,306.941650 241.279922,306.525177 
	C227.102997,305.989410 214.701706,311.296143 203.766449,320.283112 
	C200.869446,322.663971 198.232178,325.572327 194.422638,326.734070 
	C200.347275,316.166046 208.103973,307.742004 219.787689,303.489563 
	C231.379639,299.270508 242.797287,300.435028 254.546890,304.869202 
	C252.967468,301.023346 252.888321,300.921295 254.594467,299.597931 
	C261.153198,294.510620 265.279510,287.885529 267.521118,279.109955 
M231.413834,277.143402 
	C231.296280,276.005157 231.450745,274.750000 231.019592,273.746490 
	C226.008469,262.083771 220.238754,250.870071 210.468246,242.349380 
	C205.634811,238.134232 200.337936,235.025650 193.444336,235.305664 
	C186.360580,235.593399 181.065903,239.120407 175.527054,243.039032 
	C164.020157,251.179916 163.435272,261.686066 167.390457,274.686798 
	C169.608124,275.026062 170.642746,273.205505 171.815781,271.975677 
	C175.063766,268.570404 178.834885,265.853821 182.726242,263.305511 
	C198.214371,253.162888 212.645386,254.826569 225.339493,268.122559 
	C226.544601,269.384827 228.175919,270.485657 226.655792,273.156311 
	C212.429626,261.932465 197.321411,262.456848 182.906189,271.301086 
	C164.032043,282.880981 164.960632,279.937164 171.292633,299.751923 
	C171.697281,301.018219 172.009277,302.320343 172.502380,303.550507 
	C173.046631,304.908325 173.461960,306.455719 176.028412,306.891083 
	C191.996719,281.767365 213.647919,275.583801 241.114120,290.897278 
	C239.061127,284.598480 235.133423,281.381897 231.413834,277.143402 
M379.753937,290.452545 
	C378.460754,290.744843 377.168457,291.041290 375.874207,291.328796 
	C369.234314,292.803772 362.651489,294.326935 363.193481,303.382263 
	C363.219238,303.813141 362.864166,304.303711 362.211304,304.089844 
	C354.984039,290.830963 354.513367,292.583954 351.211365,295.259094 
	C348.894379,291.643921 349.693634,287.173798 347.757019,283.407990 
	C344.766724,277.593018 344.333679,277.301483 338.759003,280.838440 
	C337.197662,277.575348 337.183502,273.711090 334.639984,270.871643 
	C331.215179,267.048431 329.009033,267.005890 325.875641,271.119476 
	C322.141724,276.021271 320.564301,281.891998 319.500641,287.728607 
	C317.367737,299.432495 313.604553,309.890961 302.363434,315.988617 
	C301.378662,316.522766 300.586823,317.505188 299.862610,318.405853 
	C298.720459,319.826324 297.340179,321.382568 298.486237,323.318085 
	C299.604614,325.206848 301.580597,325.810730 303.699341,325.542542 
	C311.620209,324.539886 318.445831,321.531708 322.800110,314.445282 
	C328.510498,305.151855 336.194061,296.950012 338.968170,285.617493 
	C338.709564,293.602997 340.253632,300.611359 347.957123,304.741821 
	C345.609253,309.006134 343.752350,312.958496 340.847015,316.507019 
	C336.661407,321.619263 331.895111,326.368988 328.931244,332.390106 
	C328.173279,333.929932 327.015625,335.952362 328.800781,337.431915 
	C330.435638,338.786926 332.131836,337.241608 333.277496,336.317932 
	C341.798370,329.448059 351.505890,324.484131 360.826752,318.857880 
	C361.851593,320.422546 362.196228,322.157837 362.515076,323.987061 
	C363.044434,327.024231 365.220123,328.352264 368.042755,327.279938 
	C377.731689,323.598969 380.289764,320.059814 373.471741,310.824585 
	C372.100708,308.967468 370.189880,307.517548 368.635773,305.783264 
	C367.822357,304.875549 366.414307,304.083679 367.413055,302.154022 
	C369.715851,302.911316 372.303467,303.557617 374.454773,302.098419 
	C378.479858,299.368286 382.747894,297.479828 387.474121,296.247559 
	C390.263275,295.520355 389.796783,293.340210 387.808655,291.756165 
	C385.684784,290.063965 383.078369,290.464661 379.753937,290.452545 
M172.689041,350.811584 
	C170.112289,348.199280 167.834015,345.343079 166.106796,342.107574 
	C164.882874,339.814819 163.036575,338.300354 160.950653,336.846283 
	C157.528839,334.461029 155.111008,335.246399 153.197754,338.705261 
	C149.233429,345.872131 149.841629,353.407227 151.431870,361.001099 
	C152.975006,368.370148 157.044891,372.997742 164.867615,374.313751 
	C182.510742,377.281830 200.369171,374.219666 218.038086,376.472534 
	C221.032547,376.854340 222.597427,374.389771 221.919281,371.442780 
	C220.420807,364.930725 216.398453,360.230011 210.607224,357.046356 
	C208.915726,356.116425 207.014145,356.186005 205.317719,357.124725 
	C193.017639,363.930939 182.690887,359.974670 172.689041,350.811584 
M62.800655,400.217804 
	C68.007126,397.467682 68.608871,391.484650 71.282349,387.107635 
	C73.450249,383.558289 74.104195,378.834717 76.718170,375.091949 
	C78.801208,372.109375 80.406235,368.868286 80.822510,365.063446 
	C81.362068,360.131836 82.562469,356.810059 88.291862,353.781464 
	C101.929276,346.572693 108.285446,333.445282 109.205505,318.108917 
	C109.353401,315.643585 109.753693,312.032715 106.268593,310.021515 
	C102.464569,314.552582 99.807205,319.712799 96.165466,324.201294 
	C90.697372,330.940735 83.025734,336.195740 80.891571,345.388153 
	C80.740875,346.037262 79.834068,346.649963 79.139175,347.009888 
	C75.920975,348.676422 74.515839,351.680847 73.385651,354.813354 
	C71.640396,359.650604 69.981979,364.523468 68.454178,369.433350 
	C67.403954,372.808411 65.247139,375.221161 62.433754,377.121216 
	C56.211292,381.323700 56.114788,381.655731 60.124870,387.740814 
	C51.687992,391.926300 48.174217,399.234863 47.427044,408.149384 
	C47.171989,411.192474 46.924168,414.553131 51.283836,416.020905 
	C54.284565,410.330200 57.155907,404.676697 62.800655,400.217804 
M162.260406,236.131668 
	C162.453125,233.177307 163.541763,230.114975 161.182968,226.791550 
	C158.907990,230.549988 158.202988,234.259094 157.417694,237.868942 
	C154.291977,252.237381 155.455597,266.818695 155.273422,281.351196 
	C155.157730,290.580322 156.217896,299.561707 158.532257,308.420929 
	C162.312866,322.892883 167.689255,336.607452 179.112061,346.952911 
	C183.548386,350.970795 188.462494,354.490875 195.096390,355.598083 
	C194.287476,352.231995 192.585983,350.192963 191.011917,348.074615 
	C183.564789,338.052399 176.867462,327.515442 172.063141,316.004517 
	C161.480789,290.649811 159.295197,264.105560 162.260406,236.131668 
M315.543243,269.635895 
	C317.008698,269.724335 318.334503,270.912354 319.897125,270.210785 
	C322.301880,269.131195 323.850006,266.909637 321.323578,265.379028 
	C317.086853,262.812286 315.410461,258.266113 311.966339,255.233963 
	C309.982697,253.487564 308.357269,249.744171 305.159424,251.555176 
	C302.347717,253.147552 303.472443,256.586731 303.965240,259.373535 
	C303.999908,259.569489 303.647491,259.833893 303.407837,260.157227 
	C301.405518,258.782867 300.591888,256.498901 299.122253,254.752274 
	C296.483002,251.615646 293.530334,251.961334 291.694122,255.655685 
	C290.881653,257.290253 290.492218,259.051300 290.344269,260.928772 
	C289.758301,268.364868 289.396820,275.850769 288.212280,283.198975 
	C286.911072,291.270935 284.847015,299.209869 277.152191,304.076294 
	C275.930511,304.848907 274.896637,306.108582 274.122864,307.357910 
	C272.708618,309.641388 272.474121,312.208893 274.216522,314.375580 
	C276.014282,316.611084 278.316956,316.532684 280.970612,315.443787 
	C284.299072,314.077942 286.424683,311.582214 288.076782,308.712463 
	C296.340057,294.358887 309.192810,281.592224 304.450470,262.363190 
	C306.833466,266.443115 310.474243,268.497803 315.543243,269.635895 
M129.208466,265.248657 
	C127.284431,262.199432 125.307243,258.886108 120.981735,261.410950 
	C114.006920,265.482178 111.179169,278.274353 115.381432,285.198792 
	C121.774071,295.732635 130.744720,303.961853 139.679916,312.146393 
	C143.121017,315.298401 146.971848,318.619629 152.241837,318.602661 
	C154.005325,318.596985 156.229080,319.174652 157.056854,316.976349 
	C157.940689,314.629272 156.218414,313.321167 154.413086,312.250366 
	C146.687180,307.667908 142.673325,300.365295 139.481262,292.328369 
	C136.004913,283.575684 134.927216,273.925201 129.208466,265.248657 
M140.677979,376.854340 
	C141.670303,369.787354 142.683441,362.774048 146.969894,356.672028 
	C148.147522,354.995605 148.663467,352.718689 148.595093,350.490387 
	C148.476181,346.613403 145.913269,344.731079 142.261841,345.977386 
	C140.376282,346.620941 138.711807,347.666260 137.133011,348.961151 
	C124.427719,359.381958 121.127159,373.276703 122.539688,388.783813 
	C122.899483,392.733795 124.332649,396.649719 127.030365,399.692383 
	C129.352600,402.311523 132.273956,404.700409 136.108246,403.674500 
	C139.719849,402.708160 140.595840,399.451202 140.651413,396.147522 
	C140.754318,390.029785 140.659912,383.908783 140.677979,376.854340 
M88.957497,284.071198 
	C87.355888,289.643280 86.749466,295.457367 84.684715,300.931763 
	C83.923012,302.951294 82.103439,305.573090 84.689583,307.304108 
	C87.249458,309.017548 89.814087,307.270325 92.007301,305.786713 
	C93.067299,305.069672 93.752792,303.813019 94.650978,302.840515 
	C103.994240,292.724609 105.996353,279.000519 112.041748,267.257935 
	C113.512939,264.400269 113.223274,260.937592 110.251335,258.635071 
	C107.001823,256.117493 103.480743,256.132538 100.034874,258.242126 
	C97.230988,259.958649 95.457649,262.638000 94.296280,265.610870 
	C92.061661,271.331085 89.982620,277.117523 88.957497,284.071198 
M147.100800,321.621033 
	C137.426071,320.106598 128.954544,316.669952 123.501488,307.794434 
	C122.347664,305.916443 120.177467,304.599365 118.323189,303.230194 
	C115.569115,301.196686 113.244438,302.005524 111.804611,304.910858 
	C110.777962,306.982483 110.182220,309.248749 110.427338,311.655304 
	C111.436928,321.567261 118.168510,328.857117 127.891098,330.637177 
	C137.784119,332.448395 147.734207,331.466095 157.669418,331.405396 
	C159.384750,331.394897 161.300674,331.691071 161.725952,329.600494 
	C162.098465,327.769318 160.535889,326.504761 159.124634,325.695770 
	C155.641815,323.699188 151.705627,322.915863 147.100800,321.621033 
M166.513275,405.883179 
	C165.643585,407.675903 164.748825,409.457001 163.909485,411.263824 
	C162.212448,414.916931 161.971481,417.809723 166.957840,419.120636 
	C169.923141,419.900177 171.763687,422.469635 173.471481,425.010468 
	C176.032516,428.820801 178.233200,428.999084 181.252090,425.446838 
	C184.085892,422.112335 185.742325,418.067841 186.567078,413.794861 
	C187.920074,406.784973 189.457428,399.860138 192.812714,393.472137 
	C193.461166,392.237549 195.118927,391.126617 193.888977,389.499420 
	C192.699066,387.925232 190.874420,388.435883 189.251312,388.590942 
	C178.439468,389.623871 171.366547,395.700653 166.513275,405.883179 
M64.856064,326.372437 
	C60.638409,332.419891 52.311405,332.383636 47.683044,338.327881 
	C42.035713,333.403870 37.206470,336.413513 32.511066,339.819580 
	C30.299990,341.423462 28.601286,343.409760 30.072853,346.855164 
	C39.818695,344.533295 49.485600,342.576111 58.939590,339.874023 
	C67.273933,337.491913 73.697395,331.671265 79.789085,325.833252 
	C82.392036,323.338745 85.065453,320.210052 84.648659,315.849396 
	C84.400635,313.254486 85.255646,310.042175 82.015640,308.981384 
	C78.836334,307.940491 76.965080,310.478912 75.113609,312.656586 
	C71.562050,316.833893 69.289474,321.953552 64.856064,326.372437 
M136.624649,419.341614 
	C137.150620,415.478790 137.676590,411.615967 138.208252,407.711395 
	C135.496475,406.993378 133.462219,408.389496 130.996277,407.726288 
	C121.702599,405.226685 121.641609,405.455383 119.391922,415.165680 
	C119.204803,415.973419 118.974243,416.772156 118.815910,417.585236 
	C117.173119,426.021881 116.362221,434.399384 121.574387,442.022552 
	C122.803596,443.820404 123.966614,446.096222 127.075508,445.846222 
	C129.856094,437.086243 134.821854,429.248627 136.624649,419.341614 
M427.986298,309.925720 
	C426.618500,307.139923 424.108795,306.572327 421.330902,306.425018 
	C415.123138,306.095917 409.656342,308.521759 404.187378,310.955200 
	C403.129669,311.425812 401.773193,312.645020 401.099640,312.334930 
	C395.520874,309.766418 389.422607,311.358643 383.734406,309.920959 
	C381.365692,309.322235 378.955872,308.844543 376.642731,310.113892 
	C378.138641,316.950104 383.231781,321.061707 391.757446,321.421814 
	C395.627228,321.585236 400.981812,324.128143 402.747101,317.017883 
	C408.031128,319.993286 412.715210,318.584747 417.276093,315.474792 
	C419.613037,313.881287 422.339203,312.975800 425.188324,312.658112 
	C426.593140,312.501434 427.867706,312.301819 427.986298,309.925720 
M117.682854,458.118317 
	C119.371552,456.793915 121.096947,455.513306 122.740616,454.135193 
	C125.439789,451.872131 124.614914,449.321198 122.841011,447.128021 
	C120.963211,444.806305 118.407333,442.154907 115.304604,444.169830 
	C107.691078,449.114105 101.433182,455.486908 98.644173,464.417938 
	C97.809616,467.090363 97.424377,470.286438 101.115799,472.374176 
	C103.556427,469.696381 104.792793,466.272247 107.975807,464.498810 
	C111.139122,462.736359 114.050499,460.521698 117.682854,458.118317 
M361.617950,269.339386 
	C355.698029,265.843292 345.220520,267.035858 341.258148,271.656769 
	C346.267548,277.311798 357.952728,276.312775 361.617950,269.339386 
z"/>
<path fill="#000000" opacity="1.000000" stroke="none" 
	d="
M301.795349,459.390442 
	C295.705261,458.144836 290.230316,458.565399 284.863159,460.903595 
	C283.192810,461.631256 281.207672,461.719849 279.688416,460.290283 
	C277.899078,458.606659 279.191284,456.888947 279.902191,455.274414 
	C283.870422,446.262329 290.903503,442.913116 300.761627,444.467377 
	C311.179840,446.109955 319.091583,452.142242 326.426056,458.828339 
	C332.132538,464.030365 337.972473,469.305695 342.160187,475.986969 
	C342.652130,476.771912 343.680054,477.380829 342.808960,479.119019 
	C330.171173,470.648529 317.521667,462.203003 301.795349,459.390442 
z"/>
<path fill="#000000" opacity="1.000000" stroke="none" 
	d="
M481.206024,347.619934 
	C499.754608,347.638245 528.124207,365.743896 529.969421,378.959473 
	C527.299377,377.036285 524.914673,375.372192 522.586609,373.632355 
	C513.044800,366.501587 502.040131,363.927124 490.422028,363.404297 
	C485.776367,363.195221 481.112366,363.428558 476.460327,363.313995 
	C472.398621,363.213959 468.664825,362.142914 467.857056,357.479675 
	C467.102997,353.126648 469.811005,350.808319 473.557770,349.305817 
	C475.887268,348.371704 478.174225,347.441345 481.206024,347.619934 
z"/>
<path fill="#000000" opacity="1.000000" stroke="none" 
	d="
M338.758514,145.397675 
	C335.714142,144.577484 332.891541,144.310013 330.410797,142.716858 
	C339.875732,138.996033 353.471588,143.330093 352.497772,150.221024 
	C347.708710,149.511673 343.699951,146.627930 338.758514,145.397675 
z"/>
<path fill="#000000" opacity="1.000000" stroke="none" 
	d="
M206.438034,125.847916 
	C208.122971,126.559822 209.548096,127.055458 210.202133,129.342194 
	C203.502884,128.616562 197.996384,131.074097 192.656937,134.873367 
	C193.447754,129.138779 197.842255,126.324020 206.438034,125.847916 
z"/>
<path fill="#000000" opacity="1.000000" stroke="none" 
	d="
M190.787994,167.064972 
	C186.300812,167.219437 182.983582,169.724731 179.144684,170.854218 
	C181.012482,164.025848 194.209518,161.048706 200.440445,166.321854 
	C197.166794,166.976547 194.043152,165.728821 190.787994,167.064972 
z"/>
<path fill="#000000" opacity="1.000000" stroke="none" 
	d="
M274.720581,72.917282 
	C278.898468,73.013306 283.059235,71.301796 286.213165,75.526810 
	C279.522888,74.710655 273.274139,76.428001 265.915680,79.167702 
	C268.515900,75.054474 271.677917,74.422836 274.720581,72.917282 
z"/>
<path fill="#000000" opacity="1.000000" stroke="none" 
	d="
M241.316742,89.349731 
	C234.492874,89.388214 229.828415,93.649551 224.361053,97.053345 
	C225.695068,90.301575 236.004211,84.757446 241.379242,87.312218 
	C242.241577,87.722084 244.115921,88.280289 241.316742,89.349731 
z"/>
<path fill="#000000" opacity="1.000000" stroke="none" 
	d="
M319.962158,73.970184 
	C320.276489,75.197639 321.580475,76.081360 321.220459,77.861435 
	C317.234711,76.644768 313.253723,77.845520 308.512238,78.308426 
	C311.573853,73.731804 315.546692,74.159927 319.687622,74.081543 
	C320.012787,74.007401 319.979340,73.982536 319.962158,73.970184 
z"/>
<path fill="#000000" opacity="1.000000" stroke="none" 
	d="
M371.951996,110.756989 
	C372.280212,113.599220 370.233459,112.152596 369.252380,112.288918 
	C367.336334,112.555168 365.357086,112.367043 363.424194,112.367043 
	C365.376740,109.047600 366.372681,108.829521 371.951996,110.756989 
z"/>
</svg>