<svg version="1.1" id="Layer_1" xmlns="http://www.w3.org/2000/svg" xmlns:xlink="http://www.w3.org/1999/xlink" x="0px" y="0px"
	 width="100%" viewBox="0 0 592 592" enable-background="new 0 0 592 592" xml:space="preserve">
<path fill="#000000" opacity="1.000000" stroke="none" 
	d="
M340.158020,299.901733 
	C346.545135,307.450653 346.564087,307.466370 340.336731,314.971954 
	C336.938629,319.067596 333.647675,323.258636 329.645752,326.822998 
	C328.679688,327.683472 327.555145,328.822540 327.336945,329.989380 
	C326.225372,335.933411 322.530792,335.292511 318.308167,333.906342 
	C308.050873,330.539307 297.327515,328.667542 287.427948,324.105591 
	C285.551758,323.240936 283.177795,323.507629 281.064606,323.093750 
	C278.025177,322.498413 274.830048,322.044678 273.556946,318.588379 
	C273.895538,318.131500 274.072723,317.655975 274.285278,317.639618 
	C283.782928,316.908661 288.700378,310.330750 293.103058,303.029907 
	C297.837799,295.178375 302.154144,287.112854 305.905121,278.744232 
	C307.906952,274.278015 310.195435,270.596558 316.312561,271.871216 
	C319.579987,272.552063 322.444153,270.768951 324.179993,267.681122 
	C325.199280,265.867981 326.037537,263.791168 329.546814,263.980865 
	C325.729248,269.624115 321.863739,274.556305 319.977173,280.616516 
	C318.884460,284.126801 317.751740,287.616577 317.367859,291.262756 
	C316.344818,300.980316 311.755890,308.515320 303.848480,314.147186 
	C302.361938,315.205933 300.991333,316.434357 299.614532,317.638611 
	C297.915283,319.124878 296.411621,320.865967 297.568390,323.245636 
	C298.647003,325.464539 300.940918,325.982574 303.147461,325.776672 
	C311.957275,324.954529 319.796448,322.154175 324.490387,313.957611 
	C327.153961,309.306427 330.413422,305.115326 333.752136,300.969910 
	C335.398438,298.925842 337.213226,297.058838 340.158020,299.901733 
z"/>
<path fill="#000000" opacity="1.000000" stroke="none" 
	d="
M311.102905,99.808990 
	C313.157074,100.162498 315.083344,100.017822 316.367310,100.856491 
	C326.256927,107.316216 337.834686,107.548988 348.842621,109.756706 
	C352.677338,110.525780 353.585266,112.218361 352.623260,115.584900 
	C351.616425,119.108467 352.283936,122.506775 353.253815,125.908104 
	C353.833801,127.941917 354.846771,129.704163 356.902100,130.357941 
	C361.358215,131.775391 362.255188,135.279388 362.677979,139.230438 
	C360.481842,140.482178 359.002319,139.247803 357.623444,138.088089 
	C353.667236,134.760666 349.456909,132.918076 343.979675,133.232452 
	C339.058990,133.514877 334.059540,132.418106 329.094360,131.934677 
	C327.551971,131.784500 326.064362,131.492767 325.453796,129.815903 
	C324.820801,128.077408 325.360138,126.576126 326.524933,125.207375 
	C330.730438,120.265495 330.398193,117.058899 324.054047,114.061882 
	C319.591339,111.953682 315.370819,109.398781 310.864166,107.390877 
	C308.306641,106.251404 305.909485,105.504578 303.234253,106.831245 
	C302.663239,107.114403 301.790955,107.496277 301.366913,107.265091 
	C293.376892,102.908913 284.722778,107.623512 276.472351,105.368683 
	C272.826385,104.372246 268.837097,105.806541 266.770905,109.864418 
	C263.371338,116.540985 257.073822,120.275719 251.340027,124.411003 
	C248.131104,126.725311 244.677048,128.769516 241.463318,131.141068 
	C238.738571,133.151810 235.079529,134.436066 232.920914,131.692902 
	C230.383865,128.468842 233.404572,126.061707 236.224747,124.187531 
	C244.258087,118.848839 252.091629,113.255104 258.054688,105.491562 
	C261.118500,101.502655 265.039368,99.694397 270.172821,99.941360 
	C273.462585,100.099625 276.874878,99.787018 280.089142,99.056122 
	C290.378662,96.716331 300.529724,97.494286 311.102905,99.808990 
z"/>
<path fill="#000000" opacity="1.000000" stroke="none" 
	d="
M127.539833,300.463379 
	C133.121170,306.836182 139.564484,311.828247 145.368622,317.500214 
	C143.905945,319.922089 141.992905,318.879944 140.360794,318.535919 
	C133.885559,317.171204 128.882385,313.381439 124.702721,308.465179 
	C123.059731,306.532654 121.324684,304.839722 119.139290,303.540283 
	C115.893433,301.610413 113.617851,302.264435 110.881477,305.027771 
	C102.224106,313.770599 96.085930,324.667175 86.791023,332.828491 
	C86.419510,333.154694 86.029922,333.529449 85.823593,333.964539 
	C80.860542,344.430420 72.198624,352.776794 68.723137,364.132843 
	C67.616196,367.749756 65.946297,371.314240 63.095619,374.023712 
	C62.041592,375.025482 60.681221,376.096039 59.083702,375.209503 
	C57.692417,374.437378 57.928329,372.875519 58.036972,371.592773 
	C58.578712,365.196503 61.363003,359.430786 63.367634,353.457031 
	C64.079285,351.336334 65.071892,349.264374 63.778259,347.261078 
	C60.966949,342.907532 63.563957,340.544556 66.721764,338.239136 
	C72.768402,333.824677 79.030251,329.640656 83.322243,323.283752 
	C84.062927,322.186707 85.188957,321.032532 85.259659,319.852203 
	C85.700058,312.500183 90.535980,307.972809 95.256821,303.200562 
	C101.228416,297.163940 103.969780,289.128998 107.805588,281.783875 
	C108.638527,280.188873 108.917633,278.281250 111.664948,276.238464 
	C112.052261,287.780823 119.661018,294.009003 127.539833,300.463379 
z"/>
<path fill="#000000" opacity="1.000000" stroke="none" 
	d="
M372.539124,328.421143 
	C379.516113,325.836975 386.479065,327.160522 393.243530,326.357452 
	C400.854156,325.453918 408.534454,324.954620 415.884644,322.821045 
	C422.012878,321.042175 427.092804,324.165833 433.195770,324.662415 
	C431.794922,327.422638 429.790863,326.778351 428.164917,326.957245 
	C420.744720,327.773590 413.900208,329.985016 407.882294,334.608124 
	C403.489136,337.983032 400.116882,341.767517 400.019745,347.715454 
	C399.973907,350.522186 398.591858,352.724335 395.764404,354.257324 
	C392.888702,350.426727 393.763306,346.808411 396.413422,343.844391 
	C397.933563,342.144135 398.890289,340.500916 399.522461,338.390656 
	C401.608002,331.429077 400.881958,330.625793 393.445404,330.651123 
	C389.554047,330.664398 385.201355,328.799316 383.799042,334.658691 
	C383.977142,336.235748 385.645081,336.357544 386.492249,337.282745 
	C388.654663,339.644379 388.670532,341.778473 385.264740,342.947815 
	C381.640747,344.192017 378.026978,344.615692 375.203094,348.305969 
	C373.513397,350.514008 368.839996,349.314362 365.677460,348.256134 
	C362.022888,347.033295 358.376495,346.049072 354.531067,345.678619 
	C353.080627,345.538910 351.287781,345.219727 350.338287,344.284546 
	C346.913910,340.911926 342.638184,339.856567 338.186493,339.028381 
	C337.196136,338.844086 336.281128,338.402893 335.602081,336.663300 
	C340.865265,331.821381 347.429382,328.977661 354.280029,326.663300 
	C354.783447,326.493195 355.752533,326.772308 356.091248,327.183502 
	C360.995728,333.136627 366.651611,329.819550 372.539124,328.421143 
z"/>
<path fill="#000000" opacity="1.000000" stroke="none" 
	d="
M101.343002,346.317383 
	C106.466133,339.852814 109.416832,332.733856 110.850662,324.772095 
	C125.543343,334.066620 144.142197,335.569427 152.444382,335.225159 
	C152.433151,338.480164 150.699371,340.799835 147.951492,341.680023 
	C140.774246,343.979034 134.912216,348.120880 129.669312,353.361969 
	C128.137390,354.893372 126.267227,355.858185 124.169212,355.987915 
	C123.804726,355.378784 123.439568,355.044525 123.499435,354.827515 
	C124.524002,351.113464 126.043137,347.430969 120.698227,345.458618 
	C114.156319,343.044525 107.695992,344.113647 104.823669,348.340179 
	C101.466988,353.279480 98.019447,358.169312 93.601486,362.241669 
	C89.389206,366.124420 87.223404,371.478210 83.633377,375.801514 
	C82.920914,376.659515 82.664932,377.970428 81.173271,378.000031 
	C79.703110,377.269348 80.294685,376.013306 80.535172,374.962921 
	C82.652878,365.712982 84.883240,356.592468 94.630417,351.892761 
	C97.103195,350.700500 99.606789,349.147949 101.343002,346.317383 
z"/>
<path fill="#000000" opacity="1.000000" stroke="none" 
	d="
M191.458862,290.387939 
	C203.201675,282.431152 224.955383,281.782562 230.717056,289.102661 
	C229.040985,290.808655 226.966965,290.138092 225.110764,289.866760 
	C206.039474,287.078888 190.990204,294.475952 178.418747,308.183746 
	C175.549057,311.312805 175.310928,314.778534 177.816223,318.190308 
	C180.474304,321.810120 183.421234,325.217346 186.096008,328.825623 
	C187.486923,330.701996 189.128448,333.213898 186.728622,335.023468 
	C184.092346,337.011353 182.376129,334.285095 181.283310,332.398712 
	C176.794785,324.650635 171.643707,317.175293 170.230499,308.018463 
	C169.260437,301.733002 164.618546,296.612244 164.509689,290.035736 
	C164.485001,288.544006 164.266159,287.049927 164.058502,285.567871 
	C163.414810,280.974213 164.377930,277.626862 168.705521,274.604279 
	C175.075241,270.155334 180.404907,264.271301 187.888321,261.335449 
	C196.139114,258.098541 204.507248,258.397522 212.956024,260.050354 
	C215.539581,260.555786 217.338928,262.148438 218.488525,264.930267 
	C215.462143,266.555725 212.659760,265.260254 210.093430,264.921417 
	C199.220566,263.485779 189.513184,266.854645 180.714645,272.479523 
	C165.036697,282.502319 165.575134,280.625488 170.064117,298.155212 
	C170.105423,298.316498 170.135315,298.480835 170.179199,298.641357 
	C171.046158,301.812866 171.120834,306.154236 174.661987,306.970154 
	C178.187332,307.782440 178.484573,303.079681 180.498016,301.085480 
	C184.040955,297.576355 187.607925,294.091522 191.458862,290.387939 
z"/>
<path fill="#000000" opacity="1.000000" stroke="none" 
	d="
M163.314423,323.679321 
	C168.171265,336.913361 176.027740,347.473083 187.342407,355.665985 
	C182.030853,355.959259 178.251740,353.489777 174.880493,350.422852 
	C170.189117,346.154938 166.304550,341.149780 162.613266,336.005707 
	C162.231186,335.473236 161.580383,334.769714 161.694168,334.300781 
	C163.056931,328.683838 160.343719,325.150970 155.924515,322.313141 
	C154.704880,321.529907 154.203964,320.235779 155.424133,318.910980 
	C158.106812,315.998322 156.743408,313.406342 154.227570,311.719269 
	C140.250198,302.346497 140.136673,286.955719 136.989838,272.845215 
	C135.646667,266.822418 139.709122,266.201385 143.953018,265.293793 
	C148.227173,264.379791 149.501724,266.814117 150.572937,270.159912 
	C152.005463,274.634186 152.533279,279.201019 153.141830,283.840576 
	C154.916107,297.367676 157.899948,310.653015 163.314423,323.679321 
z"/>
<path fill="#000000" opacity="1.000000" stroke="none" 
	d="
M284.308411,263.645386 
	C283.748993,258.626953 285.615875,254.371964 286.183350,249.929749 
	C286.366577,248.495758 287.241425,247.384567 288.946381,247.846741 
	C290.236023,248.196365 290.984406,249.307205 290.654266,250.531189 
	C287.126617,263.610107 289.730347,277.496765 285.275909,290.473389 
	C283.670288,295.150818 281.770233,299.417084 277.599701,302.392059 
	C273.699097,305.174530 272.140198,309.358307 271.408661,313.883667 
	C263.488617,312.167633 258.942352,301.669128 263.086914,295.239075 
	C265.964142,290.775238 268.941498,286.363281 271.560577,281.750122 
	C273.265869,278.746552 276.040924,277.258026 278.815155,275.891541 
	C283.965637,273.354584 285.819214,269.562958 284.308411,263.645386 
z"/>
<path fill="#000000" opacity="1.000000" stroke="none" 
	d="
M305.398102,432.296173 
	C297.413300,431.870453 289.988220,432.592804 282.769409,434.908630 
	C280.448273,435.653290 278.462555,435.694611 277.335480,433.117828 
	C276.604248,431.446045 275.554993,430.664673 273.597565,430.422302 
	C269.513245,429.916565 269.721649,426.691315 270.537720,423.928253 
	C271.420135,420.940521 273.451355,421.472504 276.104462,422.388458 
	C281.246368,424.163788 286.663971,425.528168 292.178955,424.824982 
	C297.285583,424.173828 302.351166,423.097748 307.379181,421.962555 
	C312.137054,420.888336 314.202026,417.031189 316.016541,412.972107 
	C316.803101,411.212433 316.991760,408.748962 320.667450,408.339844 
	C318.078278,412.705383 316.892731,416.752808 316.264893,420.964355 
	C315.992615,422.790833 315.438049,425.095062 317.245911,426.042572 
	C324.470123,429.828827 329.865845,437.948914 339.840637,435.505310 
	C341.594879,435.075531 344.227509,435.486725 345.239563,438.003357 
	C344.452179,440.365173 342.361176,440.347717 340.677338,440.336945 
	C336.566833,440.310577 332.390533,439.231750 328.700592,442.182556 
	C327.852753,442.860535 326.815308,442.088959 326.003571,441.456024 
	C320.017944,436.788452 313.149231,434.073212 305.398102,432.296173 
z"/>
<path fill="#000000" opacity="1.000000" stroke="none" 
	d="
M175.007141,391.917847 
	C172.319794,394.152222 169.935287,396.190399 167.530991,398.245483 
	C165.175095,396.676147 166.331512,394.917786 166.923447,393.308624 
	C168.269104,389.650543 171.290314,386.695221 170.780991,382.219788 
	C170.541260,380.113312 173.021957,380.288971 174.623901,380.005890 
	C187.151352,377.792206 199.817581,378.098969 212.456619,377.852600 
	C215.893295,377.785614 219.490662,378.519714 222.579544,376.154999 
	C224.557098,374.641113 225.695740,377.853943 228.176376,376.906982 
	C231.268372,369.184937 234.501083,361.044495 237.786331,352.925323 
	C241.186066,344.523193 247.831192,338.989716 254.899094,333.889069 
	C256.204468,332.947021 257.844574,332.394714 260.007507,332.962982 
	C258.048737,336.400818 254.578049,337.927643 251.991257,340.317291 
	C240.825500,350.632202 234.035522,363.301697 231.360947,378.168945 
	C230.508102,382.909668 227.998535,384.485260 223.394913,384.193420 
	C215.146118,383.670471 206.707916,385.316315 198.727158,381.856476 
	C198.153717,381.607880 197.186066,381.413086 196.802124,381.710388 
	C190.387131,386.677429 181.692001,386.725983 175.007141,391.917847 
z"/>
<path fill="#000000" opacity="1.000000" stroke="none" 
	d="
M184.223038,126.312912 
	C184.507797,121.706421 187.559662,119.182121 190.504669,116.814629 
	C198.714844,110.214417 204.405182,101.820686 208.899857,92.427757 
	C211.461945,87.073547 214.984390,82.473938 221.007812,80.594292 
	C222.739807,80.053810 224.839325,79.385796 225.968414,81.367622 
	C227.044312,83.256111 225.218506,84.500084 223.980392,85.426071 
	C215.646332,91.659058 210.658829,100.029419 207.706177,109.861053 
	C206.689804,113.245361 204.855820,116.437080 201.302963,117.723190 
	C196.162094,119.584160 192.104996,122.919060 188.064056,126.393936 
	C187.013550,127.297264 185.672073,129.410660 184.223038,126.312912 
z"/>
<path fill="#000000" opacity="1.000000" stroke="none" 
	d="
M227.542358,414.369568 
	C225.461227,414.890961 223.843536,416.128723 221.126923,414.715607 
	C225.387909,411.625153 228.953415,407.918762 233.307083,406.117981 
	C241.990509,402.526337 250.329712,398.129272 259.738098,396.046478 
	C265.474518,394.776611 270.325500,395.799469 276.249756,396.573334 
	C274.281342,399.251190 272.381226,399.101166 270.457367,398.564331 
	C265.198700,397.096924 260.825714,398.575043 256.516968,401.808289 
	C250.984177,405.959961 246.721039,411.233337 242.191147,416.312195 
	C238.909882,419.991180 238.432571,419.768127 236.555328,415.532471 
	C234.470001,410.827393 230.885635,414.134064 227.542358,414.369568 
z"/>
<path fill="#000000" opacity="1.000000" stroke="none" 
	d="
M474.518982,355.176697 
	C490.001038,350.426514 513.642639,354.910828 519.055054,366.689453 
	C503.149872,364.169922 487.150787,361.635498 471.193756,359.107727 
	C471.024078,356.563019 472.724304,356.037506 474.518982,355.176697 
z"/>
<path fill="#000000" opacity="1.000000" stroke="none" 
	d="
M193.279297,235.175308 
	C182.452057,236.310867 175.047836,243.147949 166.948654,248.792023 
	C172.220200,238.875595 178.367966,230.056198 190.516174,228.143814 
	C198.303909,226.917847 206.623871,231.052460 209.212708,237.795181 
	C203.689209,238.129547 199.085449,233.833481 193.279297,235.175308 
z"/>
<path fill="#000000" opacity="1.000000" stroke="none" 
	d="
M318.288818,461.686432 
	C309.797821,456.708405 300.288727,457.400177 291.534607,455.021759 
	C290.309631,454.688934 288.800476,455.051270 287.825562,452.719177 
	C295.556702,448.217041 304.253937,449.939087 311.614563,451.568817 
	C319.070862,453.219788 324.786194,459.925140 330.011871,465.997772 
	C325.350037,466.486969 322.426361,463.060669 318.288818,461.686432 
z"/>
<path fill="#000000" opacity="1.000000" stroke="none" 
	d="
M380.933350,527.141113 
	C369.123688,527.316284 357.757629,527.844116 347.108551,522.118896 
	C363.963745,523.876526 380.875885,521.140747 397.834320,523.158508 
	C392.811523,526.815308 387.109985,526.939392 380.933350,527.141113 
z"/>
<path fill="#000000" opacity="1.000000" stroke="none" 
	d="
M252.160309,317.054260 
	C256.037567,317.086609 259.463928,317.135590 264.089630,319.081543 
	C255.458740,320.771179 248.173355,321.940155 241.023376,323.669037 
	C233.781876,325.420074 227.905777,330.326813 220.840805,333.852966 
	C223.234543,324.630859 232.680649,319.708832 252.160309,317.054260 
z"/>
<path fill="#000000" opacity="1.000000" stroke="none" 
	d="
M273.380310,352.345337 
	C267.275696,357.223267 263.774567,363.767944 259.338623,369.802612 
	C258.129456,355.725769 278.482361,336.738922 290.564850,342.075226 
	C284.608002,345.807465 278.392700,347.869507 273.380310,352.345337 
z"/>
<path fill="#000000" opacity="1.000000" stroke="none" 
	d="
M359.308838,280.339355 
	C361.571411,282.636047 363.618805,284.364044 366.805786,284.187988 
	C368.284882,284.106293 369.899994,284.588501 370.336761,286.320923 
	C370.769958,288.039215 369.449493,289.050171 368.307465,289.985168 
	C363.717010,293.743500 356.171997,293.002045 352.406036,288.327820 
	C351.176453,286.801666 349.935120,284.953125 350.660980,282.888336 
	C351.496552,280.511444 353.778046,280.178009 355.981964,280.074066 
	C356.964264,280.027771 357.954559,280.151398 359.308838,280.339355 
z"/>
<path fill="#000000" opacity="1.000000" stroke="none" 
	d="
M244.980713,284.866699 
	C245.618225,279.673859 246.225479,274.909973 246.902802,270.156067 
	C247.165802,268.310089 247.557617,266.332825 250.016464,266.413269 
	C252.413208,266.491669 252.912216,268.389557 252.963486,270.295532 
	C253.165009,277.789703 252.404541,285.051086 247.791901,291.435333 
	C244.488022,290.055359 245.229034,287.474731 244.980713,284.866699 
z"/>
<path fill="#000000" opacity="1.000000" stroke="none" 
	d="
M293.224121,369.468323 
	C297.036285,359.794159 303.543915,354.533386 312.182495,354.967926 
	C301.799927,361.905884 296.034973,372.003021 291.954620,383.361450 
	C290.302612,378.535339 292.100281,374.227020 293.224121,369.468323 
z"/>
<path fill="#000000" opacity="1.000000" stroke="none" 
	d="
M417.427246,381.348328 
	C412.233887,379.926300 413.548462,376.461121 415.164490,373.663696 
	C416.622040,371.140747 419.088715,369.210724 421.044067,366.961578 
	C422.185730,365.648346 423.421814,365.114258 424.918915,366.224915 
	C426.470947,367.376343 426.924866,368.896759 425.728821,370.541382 
	C423.113922,374.137024 420.420349,377.675507 417.427246,381.348328 
z"/>
<path fill="#000000" opacity="1.000000" stroke="none" 
	d="
M78.297745,294.265289 
	C79.947769,289.087677 81.529198,284.308380 84.076569,279.955627 
	C85.911110,280.805054 85.637154,281.884857 85.451073,282.826782 
	C84.388092,288.207428 83.360550,293.597717 82.141991,298.943939 
	C81.430046,302.067596 79.824333,304.438049 75.708176,304.162781 
	C75.499146,300.614014 77.371086,297.745819 78.297745,294.265289 
z"/>
<path fill="#000000" opacity="1.000000" stroke="none" 
	d="
M153.682373,442.834595 
	C152.631332,445.034332 153.699249,447.590729 151.472809,449.009552 
	C148.759476,440.391144 151.136658,428.384430 156.252045,425.951721 
	C158.298172,431.945221 156.452576,437.256866 153.682373,442.834595 
z"/>
<path fill="#000000" opacity="1.000000" stroke="none" 
	d="
M178.367462,197.414032 
	C173.394318,202.622269 170.950989,209.079041 167.226852,215.094681 
	C164.292709,207.215927 174.674774,192.184738 182.900146,191.794098 
	C182.152176,194.193588 179.892853,195.297836 178.367462,197.414032 
z"/>
<path fill="#000000" opacity="1.000000" stroke="none" 
	d="
M329.665680,418.058044 
	C328.524689,417.380035 327.562622,416.966858 326.893524,416.271667 
	C325.447693,414.769348 323.243347,413.285858 324.789581,410.820892 
	C326.079163,408.765137 328.246826,409.321289 330.215637,409.889954 
	C331.012817,410.120209 331.862274,410.247437 332.593994,410.610718 
	C334.338196,411.476624 338.353912,410.018494 337.146423,413.951263 
	C336.231537,416.931000 334.590149,420.584229 329.665680,418.058044 
z"/>
<path fill="#000000" opacity="1.000000" stroke="none" 
	d="
M197.878662,347.796082 
	C202.243546,348.481842 205.205566,351.162170 208.771591,352.953308 
	C204.303726,357.315765 198.024292,356.631775 195.972305,351.812561 
	C195.227753,350.063965 194.574631,348.168457 197.878662,347.796082 
z"/>
<path fill="#000000" opacity="1.000000" stroke="none" 
	d="
M204.868011,314.604889 
	C208.509857,310.665802 212.267166,307.633453 218.963348,307.602722 
	C214.749863,313.262390 209.168182,314.795227 204.767822,317.825775 
	C203.240570,316.418732 204.179138,315.665833 204.868011,314.604889 
z"/>
<path fill="#000000" opacity="1.000000" stroke="none" 
	d="
M303.139832,66.289993 
	C305.295715,66.248619 307.178040,66.001640 308.106537,68.093521 
	C304.424316,71.720139 300.606873,72.074745 295.841370,69.086250 
	C297.487518,66.371704 300.504150,67.230225 303.139832,66.289993 
z"/>
<path fill="#000000" opacity="1.000000" stroke="none" 
	d="
M354.470154,84.976028 
	C357.527496,85.242912 360.396606,84.182716 362.897675,86.051826 
	C360.401154,89.681480 356.862427,89.792358 351.130585,86.593857 
	C351.297333,84.591415 352.921356,85.203957 354.470154,84.976028 
z"/>
<path fill="#000000" opacity="1.000000" stroke="none" 
	d="
M246.605652,74.550880 
	C251.143661,71.815094 255.514679,69.270576 260.934692,68.513588 
	C258.883728,72.399857 249.878464,76.113319 246.605652,74.550880 
z"/>
<path fill="#000000" opacity="1.000000" stroke="none" 
	d="
M221.609100,166.102142 
	C221.634460,163.061066 222.172836,160.514542 224.954575,159.074463 
	C224.811157,161.929947 227.166382,165.848633 221.609100,166.102142 
z"/>
<path fill="#000000" opacity="1.000000" stroke="none" 
	d="
M320.694977,532.098328 
	C322.339081,532.392517 323.688141,532.528259 324.687744,534.191833 
	C321.629913,535.597656 318.952179,535.572571 316.281647,533.334839 
	C317.357147,531.398804 318.989868,532.219849 320.694977,532.098328 
z"/>
<path fill="#000000" opacity="1.000000" stroke="none" 
	d="
M417.443359,389.316956 
	C414.550964,389.609344 414.024811,388.193573 414.734375,386.063812 
	C415.054413,385.103149 415.936035,384.213135 416.969574,384.784180 
	C418.862762,385.830109 419.279480,387.392029 417.443359,389.316956 
z"/>
<path fill="#000000" opacity="1.000000" stroke="none" 
	d="
M379.776550,303.434326 
	C382.166107,300.955170 384.893829,301.902222 388.819458,302.670563 
	C385.293823,305.047760 382.630676,304.534576 379.776550,303.434326 
z"/>
<path fill="#000000" opacity="1.000000" stroke="none" 
	d="
M141.327835,464.121155 
	C141.338837,461.357208 142.651505,459.460602 145.007156,458.129181 
	C144.847702,460.705658 145.042404,463.442719 141.327835,464.121155 
z"/>
</svg>